<svg width="91" height="102" viewBox="0 0 91 102" fill="none" xmlns="http://www.w3.org/2000/svg">
<path d="M89.7304 30.3208C89.7297 28.6439 89.371 27.1621 88.6457 25.8903C87.9333 24.6398 86.8664 23.5916 85.4353 22.7629C73.6222 15.9514 61.7977 9.16077 49.9885 2.34236C46.8048 0.504347 43.7179 0.571354 40.5578 2.43575C35.8559 5.20874 12.3148 18.6959 5.29992 22.7591C2.41097 24.4315 1.00521 26.9909 1.00451 30.3177C1 44.016 1.00451 57.7139 1 71.4125C1.00069 73.0526 1.34406 74.5056 2.0374 75.7583C2.75017 77.0467 3.83201 78.1237 5.2961 78.9711C12.3114 83.0343 35.8555 96.5204 40.5565 99.2941C43.7179 101.16 46.8048 101.226 49.9895 99.3875C61.7991 92.5688 73.6243 85.7785 85.4391 78.967C86.9032 78.1198 87.985 77.0422 88.6978 75.7548C89.3901 74.5021 89.7342 73.0492 89.7349 71.4087C89.7349 71.4087 89.7349 44.0194 89.7304 30.3208" stroke="#E7E7E7"/>
<path d="M45.5034 50.7314L2.0376 75.7581C2.75037 77.0465 3.83221 78.1235 5.2963 78.971C12.3116 83.0341 35.8557 96.5203 40.5567 99.2939C43.7181 101.159 46.805 101.226 49.9897 99.3873C61.7993 92.5686 73.6245 85.7783 85.4393 78.9668C86.9034 78.1197 87.9852 77.042 88.698 75.7546L45.5034 50.7314" stroke="#E7E7E7"/>
<path d="M89.7306 30.3206C89.7299 28.6437 89.3712 27.1619 88.646 25.8901L45.5034 50.7314L88.698 75.7546C89.3903 74.5019 89.7344 73.049 89.7351 71.4085C89.7351 71.4085 89.7351 44.0192 89.7306 30.3206" stroke="#E7E7E7"/>
<path d="M87.3553 52.5201H83.9799V55.8962H80.6039V52.5201H77.2289V49.1451H80.6039V45.7698H83.9799V49.1451H87.3553V52.5201ZM75.0388 52.5201H71.6638V55.8962H68.2884V52.5201H64.9131V49.1451H68.2884V45.7698H71.6638V49.1451H75.0388V52.5201Z" fill="#42CEB5"/>
<path d="M57.1537 58.0597C54.6372 62.5224 49.8554 65.5384 44.3674 65.5384C38.9131 65.5384 34.1584 62.5603 31.6291 58.1447C30.3585 55.9291 29.6913 53.419 29.6939 50.8649C29.6939 42.7612 36.2637 36.1917 44.3674 36.1917C49.7867 36.1917 54.5164 39.1327 57.0582 43.5031L69.8836 36.1178C64.7859 27.3179 55.2684 21.3977 44.3674 21.3977C28.0927 21.3977 14.8999 34.5908 14.8999 50.8649C14.8999 56.2039 16.3202 61.2107 18.8026 65.5294C23.8875 74.3757 33.4321 80.3324 44.3674 80.3324C55.3229 80.3324 64.8824 74.3518 69.96 65.4794L57.1537 58.0597Z" fill="#42CEB5"/>
</svg>
