<svg width="90" height="101" viewBox="0 0 90 101" fill="none" xmlns="http://www.w3.org/2000/svg">
<path d="M89.0944 30.1105C89.0937 28.4456 88.7377 26.9744 88.0176 25.7121C87.3103 24.4702 86.251 23.4295 84.8302 22.6067C73.1018 15.8441 61.362 9.10212 49.6374 2.33257C46.4765 0.507732 43.4118 0.574604 40.2743 2.42564C35.6061 5.17841 12.2337 18.5689 5.2691 22.603C2.40086 24.2637 1.00517 26.8048 1.00448 30.1074C1 43.7075 1.00448 57.3076 1 70.9077C1 72.5361 1.3416 73.979 2.02996 75.2223C2.73763 76.5015 3.81171 77.5708 5.26531 78.4122C12.2303 82.4462 35.6057 95.8357 40.273 98.5895C43.4118 100.442 46.4765 100.508 49.6384 98.6825C61.3634 91.9127 73.1038 85.1707 84.8339 78.408C86.2875 77.567 87.3616 76.497 88.0693 75.2189C88.7566 73.9752 89.0989 72.5326 89.0989 70.9039C89.0989 70.9039 89.0989 43.711 89.0944 30.1105Z" stroke="#E7E7E7"/>
<path d="M45.1841 50.375L2.02979 75.2223C2.73745 76.5015 3.81154 77.5707 5.26513 78.4121C12.2301 82.4462 35.6056 95.8357 40.2728 98.5895C43.4116 100.442 46.4763 100.508 49.6383 98.6825C61.3632 91.9126 73.1037 85.1707 84.8338 78.408C86.2874 77.5669 87.3615 76.497 88.0691 75.2189L45.1841 50.375Z" stroke="#E7E7E7"/>
<path d="M89.0943 30.1105C89.0936 28.4456 88.7375 26.9744 88.0174 25.7122L45.1841 50.3754L88.0691 75.2189C88.7565 73.9752 89.0981 72.5326 89.0988 70.9039C89.0988 70.9039 89.0988 43.711 89.0943 30.1105" stroke="#E7E7E7"/>
<path d="M69.7032 41.0864V45.7309H74.3477V41.0864H76.6699V45.7309H81.3144V48.0531H76.6699V52.6973H81.3144V55.0195H76.6699V59.664H74.3477V55.0195H69.7032V59.664H67.3809V55.0195H62.7368V52.6973H67.3809V48.0531H62.7368V45.7309H67.3809V41.0864H69.7032ZM74.3477 48.0528H69.7032V52.6973H74.3477V48.0528Z" fill="#42CEB5"/>
<path d="M44.3901 17.7613C56.5042 17.7613 67.0806 24.3403 72.7457 34.1194L72.6906 34.0253L58.4373 42.2319C55.6293 37.4774 50.4816 34.2686 44.5759 34.2024L44.3897 34.2014C35.3845 34.2014 28.0837 41.5021 28.0837 50.5074C28.0808 53.3458 28.8223 56.1353 30.2343 58.5975C33.045 63.5043 38.3289 66.8138 44.3901 66.8138C50.4888 66.8138 55.8027 63.4622 58.5989 58.5031L58.531 58.622L72.7626 66.8665C67.1595 76.5629 56.7279 83.1215 44.7548 83.2521L44.3901 83.2542C32.2377 83.2542 21.6313 76.6346 15.9803 66.8038C13.2217 62.0045 11.6433 56.4407 11.6433 50.5074C11.6433 32.4224 26.3041 17.761 44.3897 17.761L44.3901 17.7613Z" fill="#42CEB5"/>
</svg>
