<svg width="67" height="100" viewBox="0 0 67 100" fill="none" xmlns="http://www.w3.org/2000/svg">
<path d="M32.8333 83.3334C32.8333 92.2573 25.5905 99.5001 16.6667 99.5001C7.74281 99.5001 0.5 92.2573 0.5 83.3334C0.5 74.4096 7.74281 67.1667 16.6667 67.1667H32.8333V83.3334Z" stroke="#E7E7E7"/>
<path d="M0.5 49.9999C0.5 41.0761 7.74281 33.8333 16.6667 33.8333H32.8333V66.1666H16.6667C7.74281 66.1666 0.5 58.9238 0.5 49.9999Z" stroke="#E7E7E7"/>
<path d="M0.5 16.6667C0.5 7.74281 7.74281 0.5 16.6667 0.5H32.8333V32.8333H16.6667C7.74281 32.8333 0.5 25.5905 0.5 16.6667Z" stroke="#E7E7E7"/>
<path d="M33.8335 0.5H50.0002C58.924 0.5 66.1668 7.74281 66.1668 16.6667C66.1668 25.5905 58.924 32.8333 50.0002 32.8333H33.8335V0.5Z" stroke="#E7E7E7"/>
<path d="M66.1668 49.9999C66.1668 58.9238 58.924 66.1666 50.0002 66.1666C41.0763 66.1666 33.8335 58.9238 33.8335 49.9999C33.8335 41.0761 41.0763 33.8333 50.0002 33.8333C58.924 33.8333 66.1668 41.0761 66.1668 49.9999Z" stroke="#E7E7E7"/>
</svg>
