<svg width="94" height="98" viewBox="0 0 94 98" fill="none" xmlns="http://www.w3.org/2000/svg">
<path d="M87.8744 24.9397L87.8753 24.947C87.8906 25.0708 87.9016 25.3984 87.9115 25.8607C87.9219 26.3399 87.9315 27.0003 87.9404 27.8202C87.958 29.4605 87.9724 31.744 87.9819 34.503C88.001 40.0212 88.001 47.4443 87.9701 55.4335C87.9246 69.142 87.8941 76.4325 87.8098 80.3942C87.7677 82.3714 87.712 83.5377 87.6317 84.2636C87.5514 84.9894 87.441 85.3387 87.2487 85.6344C87.0627 85.9308 86.797 86.2197 86.5195 86.4546C86.2473 86.685 85.9269 86.8946 85.616 86.9998C85.5531 87.0227 85.4868 87.0367 85.4421 87.0455C85.3815 87.0574 85.3092 87.069 85.2284 87.0805C85.0663 87.1036 84.8516 87.1288 84.5906 87.156C84.0675 87.2105 83.3419 87.2745 82.4449 87.3465C80.6499 87.4904 78.1566 87.667 75.1994 87.8629C69.2844 88.2548 61.506 88.7246 53.7294 89.1665C45.9527 89.6085 38.1762 90.0227 32.2648 90.3035C29.3094 90.4439 26.8185 90.551 25.0262 90.6115C24.1306 90.6418 23.4064 90.6605 22.885 90.6658C22.6248 90.6684 22.4108 90.6678 22.2494 90.6633C22.169 90.6611 22.0969 90.6578 22.0362 90.6529C21.9901 90.6492 21.9144 90.6422 21.843 90.6225C21.4919 90.5294 21.1041 90.3447 20.7572 90.1368C20.4071 89.9271 20.0654 89.6736 19.815 89.4232L19.8081 89.4163L19.8014 89.4091L19.0659 88.6136L18.9337 88.4705L18.9331 88.2757L18.8421 58.7099C18.8111 48.3342 18.8111 40.8485 18.8496 35.8528C18.8688 33.3554 18.8977 31.4772 18.9373 30.1701C18.9571 29.517 18.9797 29.0024 19.0054 28.6226C19.0295 28.2664 19.059 27.9729 19.1087 27.8059L19.1091 27.8045C19.2163 27.4479 19.3984 27.0688 19.6078 26.7441C19.8081 26.4334 20.069 26.1166 20.3609 25.9355C20.5024 25.8437 20.6843 25.7838 20.8668 25.7371C21.0658 25.6861 21.3192 25.6382 21.6322 25.5911C22.2591 25.4968 23.1637 25.4001 24.4288 25.2928C26.9614 25.0781 30.9772 24.8179 37.1895 24.4511L37.1909 24.451C43.2438 24.1113 51.5944 23.6094 58.7275 23.1806C61.8731 22.9916 64.782 22.8167 67.1527 22.6763L87.8744 24.9397ZM87.8744 24.9397L87.8733 24.9326C87.7408 24.068 87.3405 23.1303 86.8152 22.605L86.8037 22.5935C86.5651 22.3548 86.3184 22.1081 85.7834 21.9633C85.2978 21.8318 84.5801 21.7841 83.3806 21.7976C80.9839 21.8246 76.4365 22.1046 67.4006 22.661L67.1539 22.6762L87.8744 24.9397ZM4.73894 4.81133L4.73896 4.81143L4.74892 4.80944C4.74758 4.80971 4.75155 4.80891 4.76352 4.8071C4.77464 4.80542 4.78957 4.80333 4.80884 4.80084C4.84742 4.79583 4.89873 4.78977 4.96338 4.78265C5.09248 4.76844 5.26831 4.75071 5.48938 4.72963C5.93117 4.68749 6.54745 4.63255 7.31923 4.56637C8.86246 4.43403 11.023 4.25714 13.6433 4.04861C18.8837 3.63158 25.9606 3.08825 33.6112 2.52215L33.5743 2.02351L33.6123 2.52207C41.2467 1.94053 48.5367 1.42048 54.1277 1.05335C59.7397 0.684827 63.5973 0.473636 64.4055 0.502466L64.4055 0.502571L64.4157 0.502726C66.4224 0.533246 67.5148 0.629888 69.2236 1.46985C70.986 2.33617 73.3804 3.98301 77.9408 7.17702C84.7389 11.9544 88.3876 14.5346 90.4106 16.0622C92.4388 17.5938 92.7599 18.0179 92.9918 18.4685C93.0729 18.6372 93.1595 18.8919 93.228 19.7268C93.2972 20.5702 93.345 21.9546 93.3756 24.3576C93.4368 29.158 93.429 37.9677 93.3981 54.5129C93.3922 57.0186 93.3874 59.3511 93.3829 61.5227C93.3523 76.2724 93.3371 83.6033 93.1278 87.3998C93.0066 89.5995 92.8217 90.5207 92.5849 91.0025C92.4784 91.2191 92.3587 91.3503 92.1992 91.4825C92.1123 91.5545 92.0175 91.6236 91.8966 91.7125C91.7793 91.7988 91.6443 91.8988 91.4984 92.0196L91.4983 92.0196L91.4918 92.0251C91.3977 92.1059 91.3167 92.1779 91.2436 92.2428C90.9533 92.5008 90.7876 92.6481 90.4181 92.7928C89.9254 92.9858 89.0871 93.1565 87.3058 93.3426C84.0598 93.6817 77.8686 94.057 65.3861 94.8137C64.2429 94.883 63.0468 94.9555 61.7955 95.0315C54.8146 95.4284 43.1869 96.1329 35.9322 96.5916C32.3225 96.8054 28.8517 96.9886 26.1731 97.107C24.8335 97.1662 23.6938 97.2091 22.8348 97.2316C21.9582 97.2545 21.4125 97.2546 21.2299 97.2359L21.2287 97.2357C20.4732 97.1602 19.9267 97.0718 19.3896 96.8425C18.8548 96.6142 18.2941 96.2301 17.5529 95.511C16.0517 94.0542 13.9214 91.3372 9.8845 86.1035C7.8516 83.4597 5.90345 80.8544 4.3955 78.7738C3.64137 77.7332 2.99874 76.8259 2.5112 76.1115C2.01739 75.388 1.7008 74.8884 1.58006 74.6479C1.57982 74.6474 1.57959 74.6469 1.57936 74.6465L0.65258 72.7636L0.561937 40.7725L0.561936 40.7721L0.500218 8.77906L1.09352 7.53527C1.09358 7.53514 1.09364 7.53502 1.0937 7.5349C1.75517 6.1547 3.17649 5.08996 4.73894 4.81133ZM80.3872 14.2492L80.3791 14.2411L80.3707 14.2335C79.6521 13.5775 76.9246 11.6036 74.2559 9.74567C72.9128 8.81062 71.5711 7.89574 70.4834 7.17747C69.4154 6.47215 68.5475 5.92593 68.1809 5.76029L67.9751 6.21594L68.1787 5.75929C67.0891 5.27337 65.7048 5.04345 63.288 5.03197C60.8694 5.02048 57.361 5.2289 51.992 5.65753L51.9918 5.65755C47.0345 6.05614 38.8956 6.66762 33.9391 7.00424L33.9371 7.00438C20.9824 7.93677 14.5398 8.40419 11.3395 8.76913C10.5378 8.86054 9.92988 8.94655 9.46933 9.03349C9.01523 9.11921 8.67542 9.21087 8.42692 9.32423C8.16964 9.44159 7.95698 9.60696 7.84554 9.86416C7.75915 10.0635 7.76152 10.2757 7.76269 10.3814C7.76281 10.3922 7.76292 10.4019 7.76292 10.4103C7.76292 10.562 7.829 10.6772 7.84782 10.71L7.84826 10.7108C7.87831 10.7631 7.91392 10.8116 7.94592 10.852C8.01111 10.9342 8.09759 11.0282 8.19513 11.1277C8.39245 11.3289 8.67051 11.5886 9.00387 11.887C9.6726 12.4856 10.5881 13.2614 11.5836 14.0785C13.571 15.7099 15.904 17.528 17.2556 18.4445L17.2583 18.4463C17.9569 18.9134 19.1566 19.4007 19.9969 19.5347L19.9969 19.5348L20.0034 19.5357C20.097 19.5494 20.2407 19.5528 20.3933 19.5534C20.5592 19.5541 20.7753 19.5512 21.0364 19.5452C21.5593 19.5332 22.2739 19.5083 23.151 19.4724C24.9056 19.4005 27.319 19.284 30.1672 19.1362C35.8641 18.8407 43.3057 18.4198 50.7076 17.9798C58.1094 17.5398 65.4727 17.0805 71.0128 16.7083C73.7826 16.5222 76.0982 16.3577 77.7356 16.2282C78.5537 16.1634 79.2055 16.1072 79.6609 16.0612C79.8878 16.0382 80.0711 16.0173 80.2036 15.9986C80.2689 15.9894 80.3297 15.9796 80.3803 15.969C80.4048 15.9639 80.4363 15.9566 80.4688 15.9464L80.4702 15.946C80.4841 15.9418 80.5792 15.9135 80.6654 15.8393L80.6797 15.8271L80.693 15.8138C80.9615 15.5453 80.9622 15.1985 80.8627 14.9279C80.7724 14.6823 80.5908 14.4528 80.3872 14.2492Z" stroke="#42CEB5"/>
<path d="M32.5001 78.2073C30.8781 78.697 30.3264 79.0028 30.0516 79.6145C29.5619 80.6558 29.5929 81.6042 30.0826 81.6042C30.2348 81.6042 32.632 81.4569 35.7099 81.2678C36.3495 81.2285 37.0185 81.1874 37.7029 81.1455C45.569 80.6868 46.4555 80.4719 47.282 78.8499C47.5278 78.3602 47.7407 77.8395 47.7407 77.6866C47.7407 77.5647 46.6703 77.1969 45.3832 76.8911C44.067 76.5853 42.7508 76.2795 42.476 76.2175L32.5001 78.2073ZM32.5001 78.2073L34.5808 77.5647L32.5001 78.2073ZM70.1192 33.5883L70.1195 33.5882C73.3886 33.3738 76.5316 33.1905 77.0825 33.165C77.2994 33.1577 77.4329 33.1576 77.5223 33.1666C77.5225 33.1677 77.5227 33.1689 77.5228 33.1701C77.5373 33.2732 77.542 33.4266 77.542 33.6758C77.542 34.3366 77.3545 34.8029 77.0048 35.1495C76.6406 35.5105 76.0465 35.7954 75.1325 35.9698C75.1323 35.9699 75.1322 35.9699 75.132 35.9699L73.5111 36.2755L73.1055 36.352L73.1037 36.7647L73.0127 57.6688V57.6695L72.9516 78.2661L72.4507 78.5786L72.4506 78.5785L72.4417 78.5843C71.331 79.3104 69.6268 79.8522 67.9521 80.0871C67.1201 80.2038 66.3126 80.2422 65.6089 80.1948C64.8969 80.1468 64.3286 80.0133 63.949 79.8142L63.9491 79.8142L63.9439 79.8116C63.3164 79.4917 62.6966 78.9625 60.9807 76.5153C59.2743 74.0815 56.5343 69.8306 51.6502 62.1754C51.6502 62.1753 51.6502 62.1752 51.6501 62.1751L42.346 47.5754L41.4243 46.1292V47.8441V61.9544C41.4243 68.5295 41.432 72.0698 41.5053 73.9834C41.5415 74.9302 41.5947 75.5215 41.684 75.8924C41.7291 76.0795 41.7938 76.2581 41.9056 76.4043C42.0329 76.5709 42.189 76.6544 42.3351 76.6973L42.3504 76.7018L42.3661 76.7053C42.6387 76.7667 43.9515 77.0718 45.2689 77.3779C45.9003 77.5279 46.4737 77.6921 46.884 77.8313C46.986 77.8659 47.0751 77.8981 47.1508 77.9272C47.147 77.9368 47.1431 77.9467 47.1391 77.9567C47.0615 78.1512 46.9533 78.3901 46.8358 78.6242C46.6435 79.0015 46.4727 79.2459 46.2322 79.4365C45.9882 79.6299 45.6312 79.8001 45.0157 79.9477C43.761 80.2487 41.6261 80.4158 37.6738 80.6463L37.6723 80.6464C36.9878 80.6884 36.3188 80.7295 35.6792 80.7688C34.4601 80.8437 33.348 80.912 32.4397 80.9672C31.7474 81.0093 31.174 81.0438 30.7625 81.0677C30.5566 81.0796 30.3919 81.0889 30.2732 81.0952C30.2497 81.0965 30.228 81.0976 30.2084 81.0986C30.2039 81.0691 30.2006 81.0328 30.1997 80.9893C30.194 80.7205 30.2815 80.3004 30.5041 79.8272L30.5041 79.8273L30.5077 79.8194C30.6763 79.4441 30.9891 79.1858 32.6446 78.686L32.6476 78.685L34.7284 78.0424L35.0808 77.9336V77.5647V39.9799V39.4799H34.5808H33.2956C32.0828 39.4799 31.2346 39.3953 30.7044 39.2492C30.4379 39.1757 30.2926 39.0974 30.2227 39.0395C30.1971 39.0183 30.187 39.0043 30.1838 38.9993C30.1842 38.5902 30.3812 38.0082 30.714 37.45C31.0488 36.8885 31.4563 36.4594 31.7811 36.2918L31.7876 36.2884L31.7941 36.2848C31.8517 36.2528 32.0485 36.1873 32.4657 36.1091C32.8593 36.0353 33.3931 35.9594 34.0727 35.8816C35.4308 35.7262 37.3423 35.5662 39.8194 35.3979L39.8197 35.3979C41.8379 35.2596 43.6867 35.1446 45.0377 35.072C45.7137 35.0356 46.2624 35.01 46.6447 34.9973C46.7809 34.9928 46.8934 34.99 46.9818 34.9889C47.0028 35.0201 47.0261 35.055 47.0518 35.0934C47.1843 35.2919 47.3765 35.5818 47.622 35.9534C48.1129 36.6964 48.8156 37.7644 49.6783 39.0785C51.4036 41.7065 53.7676 45.3179 56.3533 49.2806L56.3538 49.2814C58.9408 53.2301 61.3208 56.8571 63.0732 59.5202C63.9494 60.8516 64.6689 61.9424 65.1791 62.7121C65.4341 63.0968 65.6373 63.4019 65.7817 63.6169C65.9134 63.8131 66.0191 63.9693 66.0596 64.018L66.0743 64.0356L66.0905 64.0519C66.152 64.1133 66.2895 64.2158 66.4904 64.2001C66.6794 64.1852 66.7933 64.0746 66.8374 64.0232C66.9147 63.9333 66.9439 63.8344 66.9508 63.8107L66.9515 63.8084C66.9734 63.7351 66.9865 63.6489 66.9958 63.5758C67.0161 63.4163 67.0341 63.183 67.0507 62.8899C67.0841 62.2991 67.1139 61.4208 67.1387 60.3001C67.1884 58.0568 67.2189 54.8238 67.2189 50.9352V37.8663V37.4261L66.7823 37.3703L65.3442 37.1864L65.3407 37.186C64.5139 37.0862 63.8864 37.0051 63.4078 36.9241C62.9218 36.8418 62.6271 36.7653 62.4466 36.6873C62.2866 36.6181 62.2713 36.5721 62.2695 36.5666C62.2694 36.5664 62.2694 36.5662 62.2693 36.5661C62.2544 36.5308 62.238 36.4459 62.2592 36.2048C62.361 35.4094 62.8587 34.6899 63.7349 34.2383L63.7349 34.2383C63.7339 34.2389 63.7334 34.2393 63.7334 34.2394C63.7337 34.2402 63.767 34.2279 63.8579 34.2078C63.9621 34.1847 64.1055 34.1587 64.2877 34.1305C64.651 34.0744 65.1443 34.0132 65.7357 33.9504C66.9171 33.825 68.4711 33.6954 70.1192 33.5883Z" stroke="#42CEB5"/>
</svg>
