<svg width="135" height="67" viewBox="0 0 135 67" fill="none" xmlns="http://www.w3.org/2000/svg">
<path d="M133.974 33.4224C133.974 42.3588 126.674 50.5855 114.558 56.6079C102.473 62.615 85.7436 66.3448 67.237 66.3448C48.7304 66.3448 32.0005 62.615 19.9158 56.6079C7.80037 50.5855 0.5 42.3588 0.5 33.4224C0.5 24.486 7.80037 16.2593 19.9158 10.2369C32.0005 4.22983 48.7304 0.5 67.237 0.5C85.7436 0.5 102.473 4.22983 114.558 10.2369C126.674 16.2593 133.974 24.486 133.974 33.4224Z" stroke="#E7E7E7"/>
<path fill-rule="evenodd" clip-rule="evenodd" d="M18.8816 53.2121L26.2503 17.5906H43.2891C50.6574 18.0306 54.3417 21.5484 54.3417 27.7056C54.3417 38.2601 45.592 44.4169 37.7626 43.9769H29.474L27.6319 53.2121H18.8816ZM31.3157 37.3807L33.6186 24.1873H39.6053C42.829 24.1873 45.1313 25.5066 45.1313 28.1451C44.6712 35.6216 40.9868 36.9408 36.8423 37.3807H31.3162H31.3157ZM52.6298 43.9769L59.9981 8.35596H68.7483L66.9061 17.5906H75.1952C82.5639 18.0306 85.3269 21.5484 84.4061 25.9465L81.1824 43.9769H71.972L75.1957 27.7056C75.6559 25.5066 75.6559 24.1873 72.4327 24.1873H65.5246L61.3801 43.9769H52.6298V43.9769ZM80.5925 53.2121L87.9607 17.5906H105C112.369 18.0306 116.053 21.5484 116.053 27.7056C116.053 38.2601 107.303 44.4169 99.474 43.9769H91.1845L89.3423 53.2121H80.5925V53.2121ZM93.0261 37.3807L95.329 24.1873H101.316C104.54 24.1873 106.842 25.5066 106.842 28.1451C106.382 35.6216 102.698 36.9408 98.5532 37.3807H93.0266H93.0261Z" fill="#42CEB5"/>
</svg>
