<svg width="133" height="120" viewBox="0 0 133 120" fill="none" xmlns="http://www.w3.org/2000/svg">
<g clip-path="url(#clip0_85_2)">
<path d="M68.2827 73.6164L63.482 60.2837C63.3475 59.9078 63.5199 59.5433 63.8958 59.4088L72.2544 56.4484C72.6302 56.314 72.9947 56.4864 73.1292 56.8622L77.9299 70.1949" stroke="#E7E7E7" stroke-width="1.5" stroke-linecap="round"/>
<path d="M77.2767 68.3693L81.4109 66.8901C81.7868 66.7557 82.1513 66.9281 82.2857 67.3039L78.5918 83.9788C78.7263 84.3546 78.5175 84.7019 78.1781 84.8536L77.8559 84.9689C77.4801 85.1033 77.1156 84.9309 76.9811 84.5551L63.1524 74.0892C63.0179 73.7133 63.1903 73.3488 63.5661 73.2144L67.7004 71.7351" stroke="#E7E7E7" stroke-width="1.5" stroke-linecap="round"/>
</g>
<path d="M12.8981 82.2418C12.0964 81.5062 11.5468 80.6617 11.2492 79.7081C10.9587 78.7467 10.9288 77.7855 11.1593 76.8243C11.3891 75.8481 11.8538 74.9789 12.5534 74.2165C13.3539 73.3441 14.2804 72.7683 15.3329 72.4891C16.3847 72.1948 17.4442 72.255 18.5114 72.6697L17.0293 74.2847C16.4024 74.1003 15.8097 74.0993 15.2513 74.2818C14.6929 74.4643 14.1866 74.8032 13.7322 75.2983C13.2346 75.8406 12.9129 76.4357 12.7671 77.0837C12.6213 77.7316 12.6645 78.3866 12.8968 79.0485C13.1363 79.7026 13.5586 80.3072 14.1637 80.8626C14.7689 81.4179 15.4076 81.7868 16.0798 81.9693C16.7592 82.144 17.4193 82.1345 18.0603 81.9409C18.6933 81.74 19.2587 81.3685 19.7563 80.8262C20.2107 80.3311 20.5048 79.7975 20.6388 79.2256C20.7728 78.6536 20.721 78.0632 20.4834 77.4543L21.9655 75.8393C22.4701 76.867 22.6209 77.9174 22.4179 78.9906C22.2221 80.0559 21.7239 81.0248 20.9234 81.8971C20.2166 82.6673 19.3943 83.2085 18.4565 83.5205C17.5108 83.8254 16.5466 83.8744 15.5638 83.6674C14.5883 83.4527 13.6997 82.9775 12.8981 82.2418Z" fill="white"/>
<path d="M22.2232 73.919C21.6367 73.2557 21.2533 72.5483 21.0727 71.7967C20.9002 71.0379 20.926 70.3103 21.1502 69.6137C21.3753 68.9021 21.7755 68.292 22.3509 67.7832C22.8703 67.324 23.4136 67.0286 23.9809 66.8973C24.5491 66.7508 25.0833 66.727 25.5835 66.8257L24.7356 65.8668L26.1141 64.648L31.9538 71.2525L30.5754 72.4713L29.7063 71.4884C29.7502 72.005 29.6641 72.5438 29.4483 73.1048C29.2325 73.6658 28.8688 74.1725 28.3574 74.6247C27.7901 75.1263 27.1435 75.4418 26.4177 75.571C25.6848 75.6922 24.9488 75.6167 24.2099 75.3446C23.4719 75.0574 22.8096 74.5822 22.2232 73.919ZM27.6502 69.1631C27.2475 68.7076 26.8018 68.3968 26.3133 68.2308C25.8328 68.0577 25.3629 68.0175 24.9038 68.1102C24.4447 68.2028 24.0394 68.4046 23.6878 68.7155C23.3362 69.0264 23.0863 69.404 22.9381 69.8483C22.7828 70.2846 22.7576 70.7554 22.8626 71.2605C22.9685 71.7507 23.2228 72.2235 23.6256 72.679C24.0283 73.1345 24.4735 73.4527 24.9611 73.6338C25.4567 73.8079 25.9376 73.8525 26.4038 73.7678C26.8709 73.6681 27.2762 73.4663 27.6198 73.1625C27.9714 72.8516 28.2213 72.474 28.3695 72.0297C28.5177 71.5854 28.5354 71.1142 28.4224 70.6161C28.3104 70.1029 28.053 69.6185 27.6502 69.1631Z" fill="white"/>
<path d="M30.7262 62.715C30.6681 62.1969 30.7392 61.708 30.9395 61.2483C31.1419 60.7736 31.4853 60.3527 31.9698 59.9854L33.1104 61.4899L32.7406 61.7702C32.1711 62.202 31.8471 62.6751 31.7687 63.1896C31.6988 63.6977 31.9345 64.3088 32.4758 65.0228L35.2788 68.7204L33.8253 69.8223L28.4994 62.7969L29.953 61.695L30.7262 62.715Z" fill="white"/>
<path d="M34.3788 57.068C34.1053 57.2539 33.813 57.3173 33.5018 57.2581C33.1907 57.1988 32.9421 57.0325 32.7561 56.7591C32.5701 56.4856 32.5068 56.1933 32.566 55.8821C32.6253 55.5709 32.7916 55.3224 33.065 55.1364C33.3296 54.9564 33.6175 54.8961 33.9287 54.9553C34.2399 55.0146 34.4885 55.1809 34.6745 55.4543C34.8604 55.7277 34.9238 56.0201 34.8645 56.3312C34.8053 56.6424 34.6434 56.888 34.3788 57.068ZM35.7765 57.5299L40.7345 64.8196L39.2263 65.8454L34.2683 58.5557L35.7765 57.5299Z" fill="white"/>
<path d="M40.0954 59.8605C39.6355 59.0792 39.3887 58.3024 39.3549 57.5301C39.3249 56.7432 39.4956 56.0238 39.867 55.372C40.2383 54.7202 40.7871 54.1806 41.5133 53.7531C42.4325 53.2121 43.3208 52.9863 44.178 53.0758C45.039 53.1507 45.8133 53.5304 46.5009 54.2149L44.8049 55.2132C44.4452 54.9175 44.0514 54.7532 43.6236 54.7203C43.1958 54.6875 42.7521 54.8063 42.2925 55.0769C41.649 55.4556 41.2695 55.9884 41.154 56.6753C41.0422 57.3476 41.2271 58.0928 41.7087 58.9109C42.1903 59.729 42.7548 60.257 43.4022 60.4947C44.0588 60.7271 44.7089 60.6539 45.3523 60.2751C46.2624 59.7395 46.6291 58.9852 46.4525 58.0123L48.1485 57.014C48.3824 57.916 48.3313 58.7754 47.9951 59.5921C47.6536 60.3997 47.0324 61.0686 46.1315 61.5988C45.4053 62.0263 44.6672 62.2442 43.917 62.2525C43.1615 62.2517 42.4497 62.0518 41.7817 61.6529C41.1174 61.2393 40.5554 60.6419 40.0954 59.8605Z" fill="white"/>
<path d="M48.7519 54.7702C48.379 53.9672 48.2131 53.1798 48.2545 52.4079C48.3055 51.6315 48.5377 50.9414 48.9512 50.3377C49.3699 49.7198 49.9275 49.2491 50.624 48.9256C51.2528 48.6335 51.8578 48.5054 52.439 48.5412C53.0253 48.5629 53.5442 48.6923 53.9955 48.9296L53.4562 47.7688L55.125 46.9936L58.839 54.9891L57.1702 55.7643L56.6175 54.5744C56.5122 55.082 56.2761 55.5739 55.9092 56.0501C55.5424 56.5263 55.0494 56.9082 54.4302 57.1958C53.7434 57.5148 53.0337 57.6328 52.3012 57.5496C51.5641 57.4568 50.8803 57.1747 50.2496 56.7031C49.6241 56.2174 49.1249 55.5731 48.7519 54.7702ZM55.3098 51.7593C55.0537 51.2079 54.7152 50.7829 54.2943 50.4845C53.883 50.1815 53.4442 50.009 52.9777 49.9669C52.5113 49.9249 52.0652 50.0027 51.6395 50.2004C51.2139 50.3981 50.8667 50.6888 50.5979 51.0723C50.3247 51.4463 50.1663 51.8903 50.1229 52.4044C50.0846 52.9044 50.1936 53.4301 50.4497 53.9815C50.7058 54.533 51.0418 54.965 51.4575 55.2776C51.8829 55.5857 52.3311 55.7657 52.802 55.8174C53.2782 55.855 53.7243 55.7772 54.1402 55.584C54.5659 55.3862 54.9131 55.0956 55.1818 54.712C55.4506 54.3284 55.6019 53.8818 55.6356 53.3721C55.6746 52.8483 55.566 52.3107 55.3098 51.7593Z" fill="white"/>
<path d="M59.9791 46.7703L61.6751 51.3461C61.79 51.6561 61.9434 51.8552 62.1353 51.9434C62.3335 52.0178 62.6077 51.9901 62.9577 51.8604L64.0079 51.4711L64.5362 52.8964L63.1859 53.3968C62.4158 53.6823 61.759 53.721 61.2154 53.5129C60.6719 53.3048 60.25 52.7957 59.9498 51.9856L58.2538 47.4097L57.2786 47.7712L56.7615 46.3759L57.7367 46.0145L56.9749 43.9591L58.7002 43.3197L59.462 45.375L61.4723 44.6299L61.9895 46.0252L59.9791 46.7703Z" fill="white"/>
<path d="M71.4651 41.6861L73.8119 50.184L72.0537 50.6696L71.7769 49.6671C71.5958 50.0934 71.3075 50.4718 70.9119 50.8023C70.5237 51.1198 70.0777 51.3481 69.5739 51.4872C68.9056 51.6718 68.2658 51.6991 67.6544 51.5691C67.0534 51.4363 66.5234 51.14 66.0645 50.6803C65.6158 50.2177 65.285 49.6008 65.072 48.8297L63.6921 43.8328L65.4348 43.3515L66.7424 48.0862C66.9525 48.8471 67.3046 49.3806 67.7986 49.6868C68.2897 49.9828 68.8643 50.0399 69.5224 49.8581C70.1804 49.6764 70.6443 49.3325 70.914 48.8265C71.1911 48.3073 71.2246 47.6673 71.0145 46.9064L69.7069 42.1717L71.4651 41.6861Z" fill="white"/>
<path d="M76.5493 42.0103C76.7322 41.522 77.017 41.1183 77.4037 40.7992C77.7991 40.4677 78.296 40.2479 78.8943 40.1399L79.2298 41.9978L78.7732 42.0803C78.0699 42.2072 77.5667 42.4824 77.2638 42.9056C76.9713 43.3269 76.9047 43.9785 77.0639 44.8602L77.8883 49.4264L76.0933 49.7505L74.5269 41.0747L76.3219 40.7506L76.5493 42.0103Z" fill="white"/>
<path d="M81.3407 44.2439C81.2671 43.3617 81.3827 42.5653 81.6874 41.8549C82.0027 41.1436 82.4585 40.5757 83.0546 40.1514C83.6605 39.7156 84.3461 39.4658 85.1115 39.402C85.8024 39.3444 86.4145 39.4325 86.9478 39.6663C87.4908 39.8887 87.9333 40.1889 88.2752 40.5672L88.1689 39.2916L90.0025 39.1388L90.7349 47.9243L88.9012 48.0771L88.7922 46.7697C88.5185 47.2099 88.1274 47.5904 87.619 47.9111C87.1105 48.2318 86.5162 48.4204 85.8358 48.4772C85.0811 48.5401 84.3742 48.4063 83.7152 48.0759C83.0552 47.7349 82.5105 47.2344 82.0808 46.5745C81.6609 45.9031 81.4142 45.1262 81.3407 44.2439ZM88.5344 43.6764C88.4839 43.0705 88.3125 42.555 88.0201 42.1298C87.7384 41.7037 87.3859 41.3906 86.9624 41.1904C86.539 40.9902 86.0934 40.9096 85.6257 40.9486C85.158 40.9876 84.732 41.1408 84.3475 41.4084C83.9622 41.6653 83.6606 42.0276 83.4427 42.4953C83.2345 42.9515 83.1557 43.4825 83.2062 44.0884C83.2567 44.6943 83.4232 45.2156 83.7058 45.6523C83.999 46.0881 84.3578 46.4115 84.7821 46.6223C85.2162 46.8216 85.6617 46.9022 86.1188 46.8641C86.5865 46.8251 87.0126 46.6718 87.3971 46.4043C87.7815 46.1368 88.0773 45.7696 88.2846 45.3028C88.5016 44.8244 88.5849 44.2823 88.5344 43.6764Z" fill="white"/>
<path d="M107.269 39.831C107.958 39.9006 108.56 40.106 109.072 40.4471C109.595 40.7893 109.982 41.2572 110.233 41.8507C110.494 42.4453 110.585 43.1406 110.505 43.9366L109.983 49.1103L108.184 48.9288L108.679 44.0257C108.758 43.2404 108.622 42.6209 108.271 42.1674C107.921 41.7033 107.407 41.437 106.728 41.3685C106.048 41.2999 105.486 41.4576 105.04 41.8414C104.605 42.2157 104.348 42.7955 104.269 43.5809L103.774 48.484L101.976 48.3025L102.47 43.3994C102.549 42.6141 102.414 41.9946 102.063 41.5411C101.713 41.077 101.198 40.8107 100.519 40.7421C99.8399 40.6736 99.2772 40.8313 98.8311 41.2151C98.3966 41.5894 98.1398 42.1692 98.0606 42.9546L97.566 47.8577L95.7512 47.6746L96.636 38.9031L98.4508 39.0862L98.3497 40.0891C98.6832 39.7582 99.0883 39.515 99.565 39.3594C100.042 39.2038 100.54 39.1522 101.06 39.2047C101.761 39.2753 102.372 39.4871 102.894 39.8399C103.416 40.1928 103.797 40.6654 104.037 41.2579C104.356 40.754 104.812 40.3765 105.406 40.1255C106 39.8639 106.621 39.7657 107.269 39.831Z" fill="white"/>
<path d="M115.347 40.231C115.023 40.1621 114.775 39.9948 114.603 39.7291C114.431 39.4633 114.379 39.1687 114.448 38.8453C114.517 38.5219 114.684 38.274 114.95 38.1016C115.215 37.9291 115.51 37.8774 115.833 37.9462C116.146 38.0129 116.389 38.1791 116.561 38.4449C116.734 38.7106 116.786 39.0052 116.717 39.3286C116.648 39.652 116.481 39.8999 116.215 40.0724C115.949 40.2448 115.66 40.2977 115.347 40.231ZM115.98 41.56L114.143 50.1826L112.359 49.8027L114.196 41.1801L115.98 41.56Z" fill="white"/>
<path d="M117.595 46.31C117.844 45.4606 118.239 44.7595 118.78 44.2068C119.331 43.6571 119.96 43.2919 120.669 43.1111C121.392 42.9232 122.121 42.9374 122.858 43.154C123.523 43.3495 124.063 43.6524 124.476 44.0629C124.902 44.4661 125.206 44.9057 125.389 45.3818L125.75 44.1538L127.515 44.6726L125.029 53.1309L123.264 52.6121L123.634 51.3533C123.22 51.6652 122.718 51.879 122.128 51.9948C121.538 52.1105 120.916 52.0721 120.261 51.8796C119.534 51.6661 118.923 51.2864 118.427 50.7405C117.935 50.1844 117.607 49.5212 117.445 48.7507C117.295 47.973 117.345 47.1594 117.595 46.31ZM124.509 48.3753C124.68 47.7919 124.707 47.2493 124.587 46.7473C124.478 46.2483 124.262 45.8291 123.94 45.4896C123.617 45.1502 123.23 44.9143 122.78 44.782C122.33 44.6497 121.877 44.6389 121.422 44.7498C120.97 44.8504 120.558 45.0796 120.186 45.4372C119.827 45.7876 119.562 46.2545 119.391 46.8378C119.219 47.4212 119.187 47.9675 119.293 48.4767C119.409 48.9889 119.627 49.4199 119.947 49.7695C120.28 50.112 120.666 50.3478 121.106 50.4772C121.557 50.6095 122.009 50.6202 122.464 50.5094C122.919 50.3985 123.328 50.1627 123.69 49.8021C124.064 49.4342 124.338 48.9586 124.509 48.3753Z" fill="white"/>
<defs>
<clipPath id="clip0_85_2">
<rect width="25" height="25" fill="white" transform="translate(66.3661 52.7712) rotate(25.313)"/>
</clipPath>
</defs>
</svg>
