<svg width="39" height="34" viewBox="0 0 39 34" fill="none" xmlns="http://www.w3.org/2000/svg">
<path d="M23.1657 21.8777C22.8206 21.8777 22.5245 21.6105 22.5245 21.2809C22.5245 20.9513 22.7882 20.6841 23.1333 20.6841H23.1657C23.5108 20.6841 23.7907 20.9513 23.7907 21.2809C23.7907 21.6105 23.5108 21.8777 23.1657 21.8777Z" fill="#42CEB5"/>
<path d="M27.7204 21.8777C27.3753 21.8777 27.0784 21.6105 27.0784 21.2809C27.0784 20.9513 27.3408 20.6841 27.686 20.6841H27.7205C28.0656 20.6841 28.3455 20.9513 28.3455 21.2809C28.3455 21.6105 28.0656 21.8777 27.7204 21.8777Z" fill="#42CEB5"/>
<path d="M32.273 21.8777C31.9279 21.8777 31.631 21.6105 31.631 21.2809C31.631 20.9513 31.8934 20.6841 32.2386 20.6841H32.2731C32.6182 20.6841 32.8981 20.9513 32.8981 21.2809C32.8981 21.6105 32.6182 21.8777 32.273 21.8777Z" fill="#42CEB5"/>
<path d="M7.23523 12.4976C6.89011 12.4976 6.59192 12.2304 6.59192 11.9008C6.59192 11.5712 6.85317 11.304 7.19829 11.304H7.23523C7.58036 11.304 7.86023 11.5712 7.86023 11.9008C7.86023 12.2304 7.58036 12.4976 7.23523 12.4976Z" fill="#42CEB5"/>
<path d="M12.3408 12.4976C11.9957 12.4976 11.6975 12.2304 11.6975 11.9008C11.6975 11.5712 11.9591 11.304 12.3042 11.304H12.3408C12.6859 11.304 12.9658 11.5712 12.9658 11.9008C12.9658 12.2304 12.686 12.4976 12.3408 12.4976Z" fill="#42CEB5"/>
<path d="M17.4464 12.4976C17.1013 12.4976 16.8031 12.2304 16.8031 11.9008C16.8031 11.5712 17.0647 11.304 17.4098 11.304H17.4464C17.7915 11.304 18.0714 11.5712 18.0714 11.9008C18.0714 12.2304 17.7915 12.4976 17.4464 12.4976Z" fill="#42CEB5"/>
<path d="M34.7031 13.0266C32.4171 11.2326 29.5368 10.3974 26.5921 10.6713C25.9313 10.7331 25.288 10.857 24.6617 11.0246C24.5335 9.14224 23.9311 7.31081 22.8989 5.68451C21.1902 2.9912 18.4861 1.09466 15.2838 0.344205C12.0822 -0.406188 8.76496 0.0795707 5.94546 1.71124C0.123646 5.07921 -1.74342 12.342 1.78346 17.9017C2.0639 18.342 2.37365 18.7651 2.70752 19.1638L1.38215 23.0175C1.31015 23.2276 1.36533 23.4584 1.5259 23.6178C1.64552 23.7361 1.80877 23.8006 1.97602 23.8006C2.03371 23.8006 2.09171 23.793 2.14877 23.7773L7.03646 22.4358C10.1107 23.8327 13.5908 23.9571 16.7404 22.805C17.1393 25.2905 18.4471 27.6514 20.636 29.3699C23.5273 31.6395 27.3578 32.3555 30.9299 31.3073L35.0412 33.0744C35.1233 33.1097 35.2109 33.1269 35.2978 33.1269C35.4343 33.1269 35.5698 33.084 35.6815 33.0013C35.8643 32.8655 35.9534 32.6446 35.9134 32.4269L35.264 28.8984C35.6051 28.5901 35.9277 28.2599 36.2259 27.9137C40.103 23.4081 39.4196 16.7297 34.7031 13.0266ZM7.37433 21.265C7.23427 21.1986 7.07346 21.1843 6.92208 21.2254L2.93833 22.3188L4.00246 19.2242C4.07021 19.0269 4.02596 18.8101 3.88527 18.6518C3.50777 18.2269 3.1599 17.7659 2.85227 17.2824C-0.317291 12.2863 1.3609 5.75911 6.5934 2.73212C9.12696 1.26511 12.107 0.829128 14.986 1.50319C17.8638 2.17784 20.2943 3.88232 21.8299 6.30318C22.8163 7.85709 23.3595 9.62 23.4246 11.4238C21.7636 12.0795 20.2867 13.1194 19.1135 14.4831C17.3358 16.5489 16.5281 19.071 16.617 21.5541C13.6355 22.7493 10.2918 22.658 7.37433 21.265ZM35.2604 27.1558C34.929 27.5407 34.5637 27.9033 34.1743 28.2338C34.0119 28.3713 33.9362 28.5794 33.9738 28.7834L34.4779 31.5233L31.2247 30.1248C31.1432 30.0898 31.0556 30.0723 30.9681 30.0723C30.9018 30.0723 30.8353 30.0822 30.7715 30.1026C27.5436 31.1234 24.051 30.506 21.4301 28.4479C17.2455 25.1627 16.6397 19.2381 20.0791 15.2408C21.7453 13.3043 24.1016 12.1033 26.7139 11.8594C29.3274 11.6164 31.8815 12.3575 33.9093 13.9486C38.0936 17.2338 38.6995 23.1586 35.2604 27.1558Z" fill="#42CEB5"/>
</svg>
