<svg width="64" height="64" viewBox="0 0 64 64" fill="none" xmlns="http://www.w3.org/2000/svg">
<path fill-rule="evenodd" clip-rule="evenodd" d="M60.9858 45.5761C62.9194 41.4548 64 36.8536 64 32C64 26.3971 62.56 21.1304 60.0299 16.55C60.8789 21.0729 61 26.3806 61 32C61 33.6582 61.0216 35.2786 61.0426 36.8512C61.0842 39.9739 61.1234 42.9082 60.9858 45.5761ZM46.5722 60.4971C42.2016 62.7365 37.2484 64 32 64C14.3269 64 0 49.6731 0 32C0 14.3269 14.3269 0 32 0C36.4079 0 40.6076 0.891211 44.4287 2.50327C44.287 2.50109 44.1441 2.5 44 2.5C27.9837 2.5 3 15.9837 3 32C3 47.8746 30.4909 60.2789 46.5722 60.4971Z" fill="#42CEB5"/>
<path fill-rule="evenodd" clip-rule="evenodd" d="M17.5071 25.2119C16.5403 27.2726 16 29.5732 16 32C16 34.8015 16.72 37.4348 17.985 39.725C17.5606 37.4635 17.5 34.8097 17.5 32C17.5 31.1709 17.4892 30.3607 17.4787 29.5744C17.4579 28.0131 17.4383 26.5459 17.5071 25.2119ZM24.7139 17.7515C26.8992 16.6318 29.3758 16 32 16C40.8366 16 48 23.1634 48 32C48 40.8366 40.8366 48 32 48C29.7961 48 27.6962 47.5544 25.7856 46.7484C25.8565 46.7495 25.9279 46.75 26 46.75C34.0081 46.75 46.5 40.0081 46.5 32C46.5 24.0627 32.7545 17.8606 24.7139 17.7515Z" fill="#42CEB5"/>
<path d="M41.5 45H38.224L25.048 25.02V45H21.772V19.872H25.048L38.224 39.816V19.872H41.5V45Z" fill="#E7E7E7"/>
</svg>
