<svg width="50" height="50" viewBox="0 0 50 50" fill="none" xmlns="http://www.w3.org/2000/svg">
<path fill-rule="evenodd" clip-rule="evenodd" d="M47.6451 35.6064C49.1558 32.3865 50 28.7919 50 25C50 20.6227 48.875 16.5081 46.8984 12.9297C47.5616 16.4632 47.6562 20.6098 47.6562 25C47.6562 26.2955 47.6731 27.5614 47.6895 28.79C47.7221 31.2296 47.7526 33.522 47.6451 35.6064ZM36.3846 47.2633C32.97 49.0129 29.1003 50 25 50C11.1929 50 0 38.8071 0 25C0 11.1929 11.1929 0 25 0C28.4436 0 31.7247 0.696258 34.71 1.95568C34.5993 1.95398 34.4876 1.95312 34.375 1.95312C21.8623 1.95312 2.34375 12.4873 2.34375 25C2.34375 37.402 23.821 47.0929 36.3846 47.2633Z" fill="#42CEB5"/>
<path fill-rule="evenodd" clip-rule="evenodd" d="M9.64841 17.0756C8.59093 19.3294 8 21.8457 8 24.5C8 27.5641 8.78749 30.4443 10.1711 32.9492C9.70686 30.4757 9.64062 27.5731 9.64062 24.5C9.64062 23.5932 9.62881 22.707 9.61734 21.847C9.59455 20.1393 9.57315 18.5346 9.64841 17.0756ZM17.5308 8.91566C19.921 7.69098 22.6298 7 25.5 7C35.165 7 43 14.835 43 24.5C43 34.165 35.165 42 25.5 42C23.0895 42 20.7927 41.5126 18.703 40.631C18.7805 40.6322 18.8587 40.6328 18.9375 40.6328C27.6964 40.6328 41.3594 33.2589 41.3594 24.5C41.3594 15.8186 26.3253 9.03498 17.5308 8.91566Z" fill="#42CEB5"/>
<path d="M18 17H20.808L29.28 29.864V17H31.32V32.576H28.512L20.04 19.496V32.576H18V17Z" fill="#E7E7E7"/>
</svg>
