<svg width="40" height="40" viewBox="0 0 40 40" fill="none" xmlns="http://www.w3.org/2000/svg">
<g clip-path="url(#clip0_32_758)">
<path d="M39.8905 5.90294L40 4.22563L35.9881 3.96955L35.7288 0L34.0337 0.108327L34.32 4.49331L33.0909 5.70947L32.9007 2.7982L31.2056 2.90653L31.4918 7.29159L30.44 8.33233C27.2076 5.49641 22.958 3.77143 18.3082 3.77143C8.21314 3.77143 0 11.8973 0 21.8855C0 31.8738 8.21314 40 18.3082 40C28.4031 40 36.6154 31.8737 36.6154 21.8855C36.6154 17.1014 34.7304 12.7452 31.6578 9.50392L32.7474 8.42571L37.0625 8.70114L37.1719 7.02384L34.3465 6.84351L35.5755 5.62751L39.8905 5.90294ZM34.9169 21.8855C34.9169 30.9473 27.466 38.3195 18.3082 38.3195C9.14955 38.3195 1.69853 30.9473 1.69853 21.8855C1.69853 12.8242 9.14955 5.45208 18.3082 5.45208C22.4895 5.45208 26.3144 6.98955 29.2373 9.52237L26.8355 11.8989C24.5318 9.97004 21.555 8.80498 18.3082 8.80498C11.0181 8.80498 5.08735 14.673 5.08735 21.8855C5.08735 29.0985 11.0181 34.9666 18.3082 34.9666C25.5974 34.9666 31.5282 29.0986 31.5282 21.8855C31.5282 18.4892 30.2128 15.3914 28.0601 13.0637L30.4565 10.6926C33.222 13.629 34.9169 17.5648 34.9169 21.8855ZM18.294 22.7266L23.3863 17.688C24.3484 18.8256 24.9288 20.2895 24.9288 21.8855C24.9288 25.4977 21.9589 28.4367 18.3082 28.4367C14.6572 28.4367 11.6865 25.4977 11.6865 21.8855C11.6865 18.2732 14.6572 15.3347 18.3082 15.3347C19.7345 15.3347 21.0558 15.7847 22.1379 16.5469L17.0931 21.5384L18.294 22.7266ZM23.3527 15.3449C21.9522 14.285 20.2033 13.6542 18.3082 13.6542C13.7201 13.6542 9.988 17.3469 9.988 21.8855C9.988 26.4247 13.7201 30.1173 18.3082 30.1173C22.8953 30.1173 26.6273 26.4247 26.6273 21.8855C26.6273 19.8262 25.8589 17.9411 24.591 16.4961L26.8583 14.2527C28.704 16.275 29.8295 18.9526 29.8295 21.8855C29.8295 28.1717 24.6609 33.286 18.3081 33.286C11.9543 33.286 6.7858 28.1718 6.7858 21.8855C6.7858 15.5995 11.9544 10.4856 18.3081 10.4856C21.0867 10.4856 23.6388 11.4639 25.6309 13.0907L23.3527 15.3449Z" fill="#42CEB5"/>
</g>
<defs>
<clipPath id="clip0_32_758">
<rect width="40" height="40" fill="white"/>
</clipPath>
</defs>
</svg>
