<svg width="31" height="30" viewBox="0 0 31 30" fill="none" xmlns="http://www.w3.org/2000/svg">
<g clip-path="url(#clip0_30_515)">
<path d="M27.5809 15.6249V10.6252H25.0855V8.12493H22.5882V6.87524H25.0855V3.12524H21.3415V5.62462H18.8442V8.12493H11.3561V5.62462H8.86072V3.12524H5.11669V6.87524H7.61209V8.12493H5.11669V10.6252H2.62129V15.6249H0.124023V24.3746H3.86806V19.3749H5.11669V24.3746H7.61209V26.8749H13.8534V23.1249H8.86072V21.8752H21.3415V23.1249H16.3488V26.8749H22.5882V24.3746H25.0855V19.3749H26.3323V24.3746H30.0763V15.6249H27.5809ZM11.3561 14.3752H7.61209V10.6252H11.3561V14.3752ZM22.5882 14.3752H18.8442V10.6252H22.5882V14.3752Z" fill="#E7E7E7"/>
</g>
<defs>
<clipPath id="clip0_30_515">
<rect width="29.9523" height="30" fill="white" transform="translate(0.124023)"/>
</clipPath>
</defs>
</svg>
