<svg width="41" height="40" viewBox="0 0 41 40" fill="none" xmlns="http://www.w3.org/2000/svg">
<g clip-path="url(#clip0_30_513)">
<path d="M37.0905 20.8332V14.167H33.7633V10.8332H30.4336V9.16699H33.7633V4.16699H28.7712V7.49949H25.4415V10.8332H15.4575V7.49949H12.1303V4.16699H7.13821V9.16699H10.4654V10.8332H7.13821V14.167H3.81102V20.8332H0.481323V32.4995H5.47337V25.8332H7.13821V32.4995H10.4654V35.8332H18.7872V30.8332H12.1303V29.167H28.7712V30.8332H22.1143V35.8332H30.4336V32.4995H33.7633V25.8332H35.4256V32.4995H40.4177V20.8332H37.0905ZM15.4575 19.167H10.4654V14.167H15.4575V19.167ZM30.4336 19.167H25.4415V14.167H30.4336V19.167Z" fill="#42CEB5"/>
</g>
<defs>
<clipPath id="clip0_30_513">
<rect width="39.9364" height="40" fill="white" transform="translate(0.481323)"/>
</clipPath>
</defs>
</svg>
