<svg width="40" height="40" viewBox="0 0 40 40" fill="none" xmlns="http://www.w3.org/2000/svg">
<path d="M32.4712 34.7863C32.7262 35.425 32.3913 35.805 31.7262 35.6313L27.785 34.6025C27.12 34.4288 26.2488 34.745 25.85 35.305L23.2262 38.9838C22.8275 39.5438 22.3525 39.4588 22.1712 38.795L20 30.8338L17.8287 38.795C17.6475 39.4588 17.1737 39.5425 16.7737 38.9838L14.15 35.305C13.7512 34.745 12.88 34.43 12.215 34.6025L8.27375 35.6313C7.60875 35.805 7.27375 35.425 7.52875 34.7863L10.7312 26.7788C13.2838 28.79 16.4975 30 20 30C23.5025 30 26.7163 28.79 29.2688 26.7788L32.4712 34.7863ZM6.25 15C6.25 7.41875 12.4187 1.25 20 1.25C27.5812 1.25 33.75 7.41875 33.75 15C33.75 22.5813 27.5812 28.75 20 28.75C12.4187 28.75 6.25 22.5813 6.25 15ZM12.4825 13.8813L14.4413 16.215C14.8838 16.7413 15.205 17.7338 15.1575 18.42L14.945 21.46C14.8975 22.1463 15.3787 22.4963 16.0162 22.2388L18.8412 21.0963C19.4788 20.8388 20.5212 20.8388 21.1588 21.0963L23.9837 22.2388C24.6213 22.4963 25.1038 22.1463 25.055 21.46L24.8425 18.42C24.795 17.7338 25.1163 16.7425 25.5588 16.215L27.5175 13.8813C27.96 13.355 27.775 12.7875 27.1087 12.6213L24.1512 11.885C23.4837 11.7188 22.64 11.1063 22.2762 10.5225L20.6625 7.9375C20.2988 7.355 19.7025 7.355 19.3375 7.9375L17.7225 10.5225C17.3588 11.105 16.515 11.7188 15.8475 11.885L12.89 12.6213C12.2238 12.7875 12.04 13.3538 12.4825 13.8813Z" fill="#2C3332"/>
</svg>
