<svg width="52" height="52" viewBox="0 0 52 52" fill="none" xmlns="http://www.w3.org/2000/svg">
<g id="social">
<path id="Vector" fill-rule="evenodd" clip-rule="evenodd" d="M37.9003 43.3386C37.9003 43.3386 37.8043 43.2285 37.6396 43.0395C37.1872 42.5197 36.2185 41.4006 35.3185 40.3203C35.2371 40.2228 35.156 40.125 35.0751 40.0271C40.6832 38.5145 42.8232 35.1626 42.8232 35.1626C41.2876 36.1285 39.8174 36.844 38.4701 37.3634C38.2812 37.4363 38.0913 37.5065 37.9003 37.5742C35.7603 38.4329 33.7053 39.005 31.6934 39.3322C27.5837 40.068 23.8166 39.8637 20.6061 39.2914C18.1659 38.8415 16.0683 38.1876 14.3133 37.5337C13.3286 37.1656 12.2585 36.716 11.188 36.1437C11.1278 36.1053 11.0676 36.0759 11.0073 36.0471L10.9954 36.0414C10.9314 36.0108 10.867 35.98 10.8029 35.9392C10.7175 35.8984 10.6744 35.8576 10.6317 35.8168C10.0538 35.5102 9.66856 35.2726 9.51204 35.1729C9.45987 35.1397 9.43312 35.1218 9.43312 35.1218C9.43312 35.1218 9.56154 35.3262 9.83911 35.6571C10.6719 36.6497 12.8471 38.7804 16.9245 39.9453C15.6404 41.499 14.0564 43.3383 14.0564 43.3383C4.59557 43.052 1 37.1249 1 37.1249C1 23.962 7.16432 13.2926 7.16432 13.2926C11.7876 9.98136 16.2422 9.22259 18.1806 9.05013C18.8267 8.99265 19.1933 9.00034 19.1933 9.00034L19.6214 9.49102C11.9161 11.6162 8.36295 14.846 8.36295 14.846C8.36295 14.846 9.19061 14.4149 10.599 13.7884C10.6929 13.7467 10.7894 13.704 10.8883 13.6606C14.3238 12.2195 17.2295 11.5604 19.0998 11.2692C19.7232 11.1721 20.2315 11.1159 20.6061 11.0852C20.6368 11.0803 20.6669 11.0754 20.6965 11.0706L20.6984 11.0703C20.9157 11.0348 21.1084 11.0034 21.3339 11.0034C24.2026 10.6465 27.1057 10.6191 29.9812 10.9218C34.0476 11.3714 38.4142 12.516 42.8661 14.846C42.8661 14.846 39.8939 12.1515 33.526 10.0631C33.0888 9.91979 32.649 9.78357 32.207 9.6545L32.8063 9.00064C32.8063 9.00064 32.8292 9.00015 32.8736 9.00031C33.4961 9.0028 38.3425 9.13421 43.6842 12.5171C44.0757 12.7649 44.4596 13.0236 44.8354 13.2929C44.8354 13.2929 50.2533 22.6701 50.9307 34.6881C50.9756 35.4893 51 36.3022 51 37.1249C51 37.1249 47.361 43.0523 37.9003 43.3386ZM17.9947 24.2481C15.7072 24.2481 13.8714 26.0445 13.6508 28.3236C13.636 28.4771 13.6285 28.6312 13.6286 28.7855C13.6286 31.2792 15.5974 33.323 17.9947 33.323C20.4349 33.323 22.361 31.2792 22.361 28.7855C22.4041 26.292 20.4346 24.2481 17.9947 24.2481ZM33.6198 24.2481C31.3321 24.2481 29.496 26.0445 29.2754 28.3236C29.2605 28.4771 29.2531 28.6312 29.2531 28.7855C29.2531 31.2792 31.2225 33.323 33.6198 33.323C36.0597 33.323 37.9857 31.2792 37.9857 28.7855C37.9857 26.292 36.0597 24.2481 33.6198 24.2481Z" fill="#42CEB5"/>
</g>
</svg>
