<svg width="52" height="52" viewBox="0 0 52 52" fill="none" xmlns="http://www.w3.org/2000/svg">
<g id="social">
<path id="Vector" d="M21.2487 36.3213C20.624 37.0103 20.1043 37.8131 19.7061 38.6432C18.6662 38.7658 17.6143 38.8012 16.8687 38.8012C15.958 38.8012 15.571 38.7249 15.3131 38.6017C15.0623 38.4818 14.8173 38.2637 14.3253 37.6474L14.3235 37.6452C13.2478 36.3055 12.0198 35.296 10.4608 34.8748L10.3816 34.8534L10.2999 34.8452C9.74635 34.7896 9.03446 34.939 8.62517 35.5123C8.39773 35.8309 8.30403 36.2454 8.42109 36.6654C8.52975 37.0553 8.78802 37.3409 9.04997 37.5374L9.07164 37.5537L9.09416 37.5687C9.88809 38.0996 10.3304 38.8013 10.6808 39.6118C10.8223 39.9392 10.9402 40.2623 11.0655 40.6059C11.101 40.7032 11.1371 40.8021 11.1745 40.9033C11.336 41.3401 11.5215 41.8163 11.7688 42.2543L11.769 42.2547C12.7336 43.9617 14.6513 44.7701 16.6083 44.7701H16.6108H16.6134H16.616H16.6186H16.6212H16.6239H16.6266H16.6293H16.632H16.6348H16.6376H16.6404H16.6433H16.6462H16.6491H16.652H16.655H16.658H16.661H16.6641H16.6672H16.6703H16.6734H16.6766H16.6798H16.683H16.6862H16.6895H16.6928H16.6961H16.6995H16.7028H16.7063H16.7097H16.7131H16.7166H16.7201H16.7237H16.7272H16.7308H16.7344H16.7381H16.7417H16.7454H16.7491H16.7528H16.7566H16.7604H16.7642H16.768H16.7719H16.7758H16.7797H16.7836H16.7876H16.7916H16.7956H16.7996H16.8037H16.8078H16.8119H16.816H16.8202H16.8243H16.8285H16.8328H16.837H16.8413H16.8456H16.8499H16.8542H16.8586H16.863H16.8674H16.8718H16.8763H16.8807H16.8852H16.8897H16.8943H16.8989H16.9034H16.908H16.9127H16.9173H16.922H16.9267H16.9314H16.9362H16.9409H16.9457H16.9505H16.9553H16.9602H16.965H16.9699H16.9748H16.9797H16.9847H16.9897H16.9946H16.9997H17.0047H17.0097H17.0148H17.0199H17.025H17.0301H17.0353H17.0404H17.0456H17.0508H17.0561H17.0613H17.0666H17.0719H17.0772H17.0825H17.0878H17.0932H17.0986H17.104H17.1094H17.1148H17.1203H17.1257H17.1312H17.1367H17.1422H17.1478H17.1533H17.1589H17.1645H17.1701H17.1758H17.1814H17.1871H17.1927H17.1984H17.2042H17.2099H17.2156H17.2214H17.2272H17.233H17.2388H17.2446H17.2505H17.2563H17.2622H17.2681H17.274H17.28H17.2859H17.2919H17.2978H17.3038H17.3098H17.3158H17.3219H17.3279H17.334H17.3401H17.3462H17.3523H17.3584H17.3646H17.3707H17.3769H17.3831H17.3893H17.3955H17.4017H17.4079H17.4142H17.4205H17.4267H17.433H17.4393H17.4457H17.452H17.4583H17.4647H17.4711H17.4775H17.4839H17.4903H17.4967H17.5031H17.5096H17.5161H17.5225H17.529H17.5355H17.542H17.5486H17.5551H17.5617H17.5682H17.5748H17.5814H17.588H17.5946H17.6012H17.6078H17.6145H17.6211H17.6278H17.6345H17.6411H17.6478H17.6545H17.6613H17.668H17.6747H17.6815H17.6882H17.695H17.7018H17.7086H17.7154H17.7222H17.729H17.7358H17.7427H17.7495H17.7564H17.7632H17.7701H17.777H17.7839H17.7908H17.7977H17.8046H17.8115H17.8185H17.8254H17.8324H17.8393H17.8463H17.8533H17.8603H17.8673H17.8743H17.8813H17.8883H17.8953H17.9023H17.9094H17.9164H17.9235H17.9305H17.9376H17.9447H17.9518H17.9589H17.9659H17.9731H17.9802H17.9873H17.9944H18.0015H18.0087H18.0158H18.0229H18.0301H18.0373H18.0444H18.0516H18.0588H18.0659H18.0731H18.0803H18.0875H18.0947H18.1019H18.1091H18.1164H18.1236H18.1308H18.138H18.1453H18.1525H18.1598H18.167H18.1743H18.1815H18.1888H18.196H18.2033H18.2106H18.2179H18.2251H18.2324H18.2397H18.247H18.2543H18.2616H18.2689H18.2762H18.2835H18.2908H18.2981H18.3054H18.3127H18.32H18.3274H18.3347H18.342H18.3493H18.3567H18.364H18.3713H18.3787H18.386H18.3933H18.4007H18.408H18.4154H18.4227H18.43H18.4374H18.4447H18.4521H18.4594H18.4668H18.4741H18.4815H18.4888H18.4962H18.5035H18.5109H18.5182H18.5256H18.5329H18.5403H18.5476H18.555H18.5623H18.5697H18.577H18.5844H18.5917H18.5991H18.6064H18.6138H18.6211H18.6284H18.6358H18.6431H18.6504H18.6578H18.6651H18.6725H18.6798H18.6871H18.6944H18.7018H18.7091H18.7164H18.7237H18.731H18.7383H18.7457H18.75V47.6535C9.01566 44.7157 2 36.0647 2 25.8732C2 13.2845 12.7021 3 26 3C39.2979 3 50 13.2845 50 25.8732C50 35.3214 43.9695 43.4436 35.3333 46.9231V42.4113C35.3333 40.9967 34.8521 39.4244 34.0837 38.064C33.7351 37.4467 33.314 36.8496 32.8291 36.3175C35.9825 35.7253 38.4804 34.6136 40.2891 33.0444C42.5528 31.0807 43.6562 28.4686 43.6562 25.5151C43.6562 23.0835 42.6517 20.7825 41.0039 18.8462C41.2633 17.8924 41.514 16.6435 41.5721 15.4149C41.6071 14.6735 41.574 13.9019 41.4098 13.1905C41.2463 12.4823 40.9369 11.7667 40.3672 11.2235L40.0775 10.9471H39.6771C36.1845 10.9471 33.8523 12.7501 32.8211 13.758C31.0168 13.2294 29.0648 12.9366 27.0312 12.9366C25.0011 12.9366 23.0565 13.2295 21.2576 13.7548C20.2257 12.7481 17.8951 10.9471 14.4062 10.9471H14.0051L13.7151 11.2244C13.148 11.7667 12.8394 12.4802 12.6759 13.1863C12.5117 13.8956 12.4778 14.6649 12.5117 15.4043C12.5679 16.6299 12.8158 17.8761 13.0721 18.8294C11.4137 20.77 10.4021 23.0777 10.4021 25.5151C10.4021 28.4709 11.5073 31.0847 13.7743 33.0488C15.5865 34.6188 18.0891 35.7305 21.2487 36.3213Z" stroke="#42CEB5" stroke-width="2"/>
</g>
</svg>
