<svg width="52" height="52" viewBox="0 0 52 52" fill="none" xmlns="http://www.w3.org/2000/svg">
<g id="social">
<g id="logolinkedin">
<path id="path14" d="M4.6949 3.00002C3.13864 3.00002 2 4.15933 2 5.44196V46.6073C2 47.8905 3.13851 49.0493 4.6949 49.0493H47.3051C48.8614 49.0493 50 47.8904 50 46.6073V5.44196C50 4.15935 48.8613 3.00002 47.3051 3.00002H4.6949Z" stroke="#42CEB5" stroke-width="2"/>
<path id="path28" fill-rule="evenodd" clip-rule="evenodd" d="M16.1564 42.2222V20.5253H8.60439V42.2222H16.1564V42.2222ZM12.3804 17.563C15.0139 17.563 16.6531 15.8969 16.6531 13.8148C16.604 11.6858 15.0139 10.0659 12.4303 10.0659C9.84702 10.0659 8.15796 11.6858 8.15796 13.8148C8.15796 15.8969 9.79678 17.563 12.3312 17.563H12.3802H12.3804Z" fill="#42CEB5"/>
<path id="path30" fill-rule="evenodd" clip-rule="evenodd" d="M20.512 42.0158H28.0639V29.8993C28.0639 29.2509 28.113 28.6031 28.3124 28.1395C28.8584 26.8439 30.101 25.502 32.1873 25.502C34.92 25.502 36.0132 27.4917 36.0132 30.4085V42.0158H43.5645V29.5751C43.5645 22.9108 39.8388 19.8098 34.8701 19.8098C30.796 19.8098 28.3865 22.4805 28.0641 22.7956V20.3189H20.5122C20.6113 22.3548 20.512 42.0158 20.512 42.0158Z" fill="#42CEB5"/>
</g>
</g>
</svg>
