<svg width="100" height="100" viewBox="0 0 100 100" fill="none" xmlns="http://www.w3.org/2000/svg">
<path d="M22.3989 84.7537L22.3991 84.7541C24.0913 87.8898 27.5276 89.4833 31.2167 89.4833H31.2217H31.2268H31.2319H31.2371H31.2424H31.2477H31.2531H31.2586H31.264H31.2696H31.2752H31.2809H31.2866H31.2924H31.2982H31.3041H31.31H31.316H31.3221H31.3282H31.3343H31.3406H31.3468H31.3532H31.3595H31.366H31.3725H31.379H31.3856H31.3922H31.3989H31.4057H31.4125H31.4194H31.4263H31.4332H31.4403H31.4473H31.4544H31.4616H31.4688H31.4761H31.4834H31.4908H31.4982H31.5057H31.5132H31.5208H31.5284H31.5361H31.5438H31.5516H31.5594H31.5673H31.5752H31.5832H31.5912H31.5993H31.6074H31.6155H31.6237H31.632H31.6403H31.6487H31.6571H31.6655H31.674H31.6825H31.6911H31.6998H31.7084H31.7172H31.7259H31.7347H31.7436H31.7525H31.7615H31.7705H31.7795H31.7886H31.7977H31.8069H31.8161H31.8254H31.8347H31.844H31.8534H31.8628H31.8723H31.8818H31.8914H31.901H31.9106H31.9203H31.93H31.9398H31.9496H31.9595H31.9694H31.9793H31.9893H31.9993H32.0094H32.0195H32.0296H32.0398H32.05H32.0603H32.0706H32.0809H32.0913H32.1017H32.1121H32.1226H32.1332H32.1437H32.1543H32.165H32.1756H32.1864H32.1971H32.2079H32.2187H32.2296H32.2405H32.2514H32.2624H32.2734H32.2845H32.2956H32.3067H32.3178H32.329H32.3402H32.3515H32.3628H32.3741H32.3855H32.3969H32.4083H32.4198H32.4313H32.4428H32.4544H32.466H32.4776H32.4893H32.501H32.5127H32.5244H32.5362H32.5481H32.5599H32.5718H32.5837H32.5957H32.6076H32.6197H32.6317H32.6438H32.6559H32.668H32.6802H32.6924H32.7046H32.7168H32.7291H32.7414H32.7538H32.7661H32.7785H32.7909H32.8034H32.8159H32.8284H32.8409H32.8535H32.8661H32.8787H32.8913H32.904H32.9167H32.9294H32.9422H32.9549H32.9677H32.9806H32.9934H33.0063H33.0192H33.0321H33.0451H33.0581H33.0711H33.0841H33.0971H33.1102H33.1233H33.1364H33.1496H33.1627H33.1759H33.1892H33.2024H33.2157H33.2289H33.2422H33.2556H33.2689H33.2823H33.2957H33.3091H33.3225H33.336H33.3495H33.3629H33.3765H33.39H33.4036H33.4171H33.4307H33.4444H33.458H33.4716H33.4853H33.499H33.5127H33.5265H33.5402H33.554H33.5677H33.5816H33.5954H33.6092H33.6231H33.6369H33.6508H33.6647H33.6787H33.6926H33.7066H33.7205H33.7345H33.7485H33.7625H33.7766H33.7906H33.8047H33.8188H33.8328H33.847H33.8611H33.8752H33.8894H33.9035H33.9177H33.9319H33.9461H33.9603H33.9746H33.9888H34.003H34.0173H34.0316H34.0459H34.0602H34.0745H34.0888H34.1032H34.1175H34.1319H34.1463H34.1606H34.175H34.1894H34.2039H34.2183H34.2327H34.2472H34.2616H34.2761H34.2905H34.305H34.3195H34.334H34.3485H34.363H34.3775H34.3921H34.4066H34.4212H34.4357H34.4503H34.4648H34.4794H34.494H34.5086H34.5232H34.5378H34.5524H34.567H34.5816H34.5962H34.6108H34.6255H34.6401H34.6547H34.6694H34.684H34.6987H34.7133H34.728H34.7427H34.7573H34.772H34.7867H34.8014H34.816H34.8307H34.8454H34.8601H34.8748H34.8895H34.9042H34.9189H34.9336H34.9483H34.963H34.9777H34.9924H35.0071H35.0218H35.0365H35.0512H35.0659H35.0806H35.0953H35.11H35.1247H35.1394H35.154H35.1687H35.1834H35.1981H35.2128H35.2275H35.2422H35.2569H35.2715H35.2862H35.3009H35.3156H35.3302H35.3449H35.3596H35.3742H35.3889H35.4035H35.4182H35.4328H35.4474H35.4621H35.4767H35.4913H35.5059H35.5205H35.5351H35.5497H35.5643H35.5789H35.5935H35.608H35.6226H35.6372H35.6517H35.6662H35.6808H35.6953H35.7098H35.7243H35.7388H35.7533H35.7678H35.7823H35.7968H35.8112H35.8257H35.8401H35.8545H35.8689H35.8834H35.8978H35.9121H35.9265H35.9409H35.9552H35.9696H35.9839H35.9983H36.0126H36.0269H36.0412H36.0554H36.0697H36.0839H36.0982H36.1124H36.1266H36.1408H36.155H36.1692H36.1833H36.1975H36.2116H36.2257H36.2398H36.2539H36.268H36.282H36.2961H36.3101H36.3241H36.3381H36.3521H36.3661H36.38H36.394H36.4079H36.4218H36.4356H36.4495H36.4634H36.4772H36.491H36.5V97.0292C36.5 97.3961 36.5194 97.7417 36.5556 98.0687C16.0367 92.2193 1 73.39 1 51C1 23.9398 22.9398 2 50 2C77.0602 2 99 23.9398 99 51C99 71.8217 85.9899 89.5646 67.6667 96.6577V85.6375C67.6667 82.9121 66.774 79.8093 65.3062 77.0878C64.3011 75.2243 62.9959 73.4839 61.4611 72.1498C68.6253 71.0544 74.1224 68.6458 77.9401 65.1777C82.2294 61.2811 84.3125 56.1236 84.3125 50.25C84.3125 45.2994 82.284 40.5598 78.8901 36.5633C79.4449 34.5696 80.0223 31.7696 80.1453 29.0425C80.2126 27.5526 80.146 26.0484 79.8473 24.6933C79.5498 23.3434 79.0056 22.0693 78.0608 21.1257L77.768 20.8333H77.3542C70.1964 20.8333 65.6028 25.0062 63.921 26.8526C60.2491 25.6637 56.2459 25 52.0625 25C47.8865 25 43.8989 25.6638 40.2367 26.8453C38.5506 24.999 33.9605 20.8333 26.8125 20.8333H26.3979L26.1049 21.1267C25.1642 22.0688 24.6215 23.3392 24.3239 24.6852C24.0252 26.0364 23.9573 27.5361 24.0223 29.0219C24.1414 31.7421 24.7124 34.5364 25.2609 36.5314C21.846 40.5365 19.8042 45.2893 19.8042 50.25C19.8042 56.1281 21.8906 61.2889 26.1864 65.1864C30.0102 68.6557 35.5161 71.0635 42.6917 72.1556C40.7253 73.8675 39.1415 76.2531 38.0738 78.761C35.7678 79.0826 33.3807 79.1708 31.7375 79.1708C29.8986 79.1708 28.9372 79.0172 28.2115 78.6541C27.488 78.2922 26.8751 77.6621 25.8828 76.3604L25.8811 76.3582C23.8105 73.6578 21.5208 71.7187 18.6722 70.9128L18.5898 70.8894L18.5045 70.8805C17.585 70.7838 16.5801 71.0671 16.0518 71.8419C15.7701 72.2552 15.6623 72.772 15.8024 73.2982C15.9361 73.8005 16.268 74.2152 16.6823 74.5406L16.7039 74.5576L16.7264 74.5733C18.537 75.8411 19.5272 77.5181 20.2731 79.3248C20.5696 80.0433 20.8191 80.7597 21.0715 81.4846C21.1411 81.6842 21.2108 81.8845 21.2818 82.0857C21.6033 82.9962 21.9496 83.9202 22.3989 84.7537Z" stroke="#42CEB5" stroke-width="2"/>
</svg>
