<svg width="100" height="100" viewBox="0 0 100 100" fill="none" xmlns="http://www.w3.org/2000/svg">
<path d="M37 31.9387V45.2173L12.75 31.217L12 30.784V31.65V59.6507L0.5 53.0113V10.866L37 31.9387Z" stroke="#42CEB5"/>
<path d="M50 67.156L38.5 60.5167L62.75 46.5163L63 46.372V46.0833V31.65V30.784L62.25 31.217L38 45.2173V31.9387L74.5 10.866V53.0113L50 67.156Z" stroke="#42CEB5"/>
<path d="M62 88.5173L38 74.6613V61.3827L62 75.2387V88.5173Z" stroke="#42CEB5"/>
<path d="M87.75 60.9497L88 60.8053V60.5167V46.372L99.5 39.7327V67.4447L63 88.5173V75.2387L87.75 60.9497ZM88 17.5053L99.5 10.866V24.1447L88 30.784V17.5053Z" stroke="#42CEB5"/>
</svg>
