<svg width="100" height="100" viewBox="0 0 100 100" fill="none" xmlns="http://www.w3.org/2000/svg">
<path d="M49.4573 80.2341C49.1184 80.2341 48.8019 80.1437 48.508 79.9855L45.5018 78.1999C45.0496 77.9511 45.2757 77.8608 45.4114 77.8156C46.0216 77.6122 46.1346 77.5668 46.7675 77.2054C46.8354 77.16 46.926 77.1827 46.9936 77.2279L49.2993 78.6067C49.3896 78.6519 49.5027 78.6519 49.5704 78.6067L58.5894 73.3852C58.6798 73.34 58.7251 73.2494 58.7251 73.1366V62.7162C58.7251 62.603 58.6798 62.5128 58.5894 62.4675L49.5704 57.2686C49.48 57.2233 49.367 57.2233 49.2993 57.2686L40.2802 62.4675C40.1899 62.5126 40.1445 62.6257 40.1445 62.716V73.1364C40.1445 73.227 40.1899 73.3398 40.2802 73.3852L42.7441 74.8092C44.0778 75.4872 44.914 74.6961 44.914 73.905V63.6202C44.914 63.4847 45.0271 63.3489 45.1853 63.3489H46.338C46.4738 63.3489 46.6093 63.462 46.6093 63.6202V73.905C46.6093 75.6906 45.6373 76.7305 43.942 76.7305C43.4222 76.7305 43.0154 76.7305 41.8625 76.1653L39.4891 74.8092C38.9014 74.4702 38.5398 73.8372 38.5398 73.1591V62.7387C38.5398 62.0607 38.9014 61.4276 39.4891 61.0886L48.508 55.8671C49.0732 55.5507 49.8418 55.5507 50.4068 55.8671L59.4257 61.0886C60.0134 61.4276 60.3752 62.0607 60.3752 62.7387V73.1591C60.3752 73.8372 60.0134 74.4702 59.4257 74.8092L50.4068 80.0307C50.1129 80.1664 49.7739 80.2341 49.4575 80.2341H49.4573ZM52.2376 73.0687C48.2821 73.0687 47.4683 71.2604 47.4683 69.7234C47.4683 69.5876 47.5813 69.4521 47.7396 69.4521H48.915C49.0505 69.4521 49.1636 69.5425 49.1636 69.6782C49.3445 70.8761 49.8643 71.4638 52.2603 71.4638C54.159 71.4638 54.973 71.0343 54.973 70.0171C54.973 69.4294 54.7467 69.0001 51.7857 68.7062C49.3218 68.4574 47.7847 67.9151 47.7847 65.9485C47.7847 64.1175 49.322 63.0325 51.8987 63.0325C54.7919 63.0325 56.2161 64.0272 56.397 66.1969C56.397 66.265 56.3743 66.3327 56.3291 66.4005C56.2837 66.4457 56.2161 66.4909 56.1482 66.4909H54.9728C54.8597 66.4909 54.7467 66.4005 54.7242 66.2875C54.4529 65.0444 53.7522 64.6374 51.8987 64.6374C49.8191 64.6374 49.5704 65.3608 49.5704 65.9032C49.5704 66.5587 49.8643 66.7621 52.6671 67.1238C55.4474 67.4856 56.7586 68.0054 56.7586 69.9493C56.7359 71.9385 55.1085 73.0687 52.2376 73.0687Z" fill="#42CEB5"/>
<path d="M20.9738 39.4793V39.4801L20.9965 54.3074C20.9965 54.3183 20.9929 54.3336 20.985 54.3473C20.981 54.3542 20.9777 54.3576 20.9764 54.3588L20.9576 54.3682L20.9376 54.3807C20.9271 54.3873 20.9173 54.3895 20.9087 54.3895C20.9 54.3895 20.8903 54.3873 20.8798 54.3807L20.8714 54.3755L20.8629 54.3706L15.1667 51.1156L15.1637 51.114C14.9569 50.9976 14.8309 50.7784 14.8309 50.5553V43.6158C14.8309 43.0264 14.5063 42.4782 13.9914 42.1872L11.5932 40.7975C11.3283 40.6171 11.0214 40.5614 10.7595 40.5614C10.4847 40.5614 10.188 40.6224 9.91463 40.7909L7.50507 42.1872C6.99013 42.4782 6.66556 43.0266 6.66556 43.6158V50.5553C6.66556 50.7784 6.53959 50.9976 6.33272 51.114L6.32978 51.1157L0.633591 54.3706L0.611729 54.3831L0.603231 54.3892C0.597977 54.3884 0.590143 54.3862 0.581402 54.3807L0.561461 54.3683L0.542848 54.359C0.541537 54.3577 0.538251 54.3543 0.534216 54.3474C0.526266 54.3337 0.522687 54.3183 0.522688 54.3074L0.522686 54.3066L0.5 39.4793C0.5 39.4792 0.5 39.4791 0.5 39.479C0.50012 39.2557 0.626016 39.0367 0.832728 38.9205L0.832741 38.9205L0.837096 38.918L10.4201 33.4033C10.4203 33.4032 10.4204 33.4032 10.4205 33.4031C10.5374 33.3362 10.6307 33.3109 10.6916 33.3109H10.7488C10.8787 33.3296 10.9786 33.3605 11.0534 33.4031C11.0535 33.4032 11.0537 33.4033 11.0539 33.4034L20.6367 38.918L20.6367 38.918L20.641 38.9204C20.8477 39.0367 20.9738 39.2561 20.9738 39.4793ZM67.2497 19.5C67.2724 19.5 67.2946 19.5051 67.3116 19.5125L73.0142 22.6907C73.0144 22.6908 73.0146 22.6909 73.0147 22.691C73.2168 22.805 73.3472 23.0213 73.3472 23.2722V50.8263C73.3472 51.0497 73.2212 51.2689 73.0144 51.3852L73.0094 51.3881L63.4281 56.9245C63.4276 56.9248 63.4271 56.925 63.4266 56.9253C63.3267 56.9819 63.2138 57.0116 63.099 57.0116C62.9841 57.0116 62.8713 56.9819 62.7713 56.9253C62.7709 56.925 62.7704 56.9248 62.7699 56.9245L53.1886 51.3881L53.1886 51.3881L53.1836 51.3852C52.9768 51.2689 52.8507 51.0495 52.8507 50.8263V39.7731C52.8507 39.55 52.9767 39.3307 53.1836 39.2144L53.1836 39.2144L53.1886 39.2115L62.7699 33.6751C62.7703 33.6749 62.7708 33.6746 62.7712 33.6744C62.8711 33.6178 62.9841 33.588 63.099 33.588C63.214 33.588 63.3271 33.6179 63.4272 33.6746C63.4275 33.6748 63.4278 33.675 63.4281 33.6751L65.8221 35.0528L65.8349 35.0602L65.8481 35.0668C66.1243 35.2047 66.4255 35.2047 66.7016 35.0668L66.7297 35.0528L66.7558 35.0354C67.0255 34.8554 67.1817 34.5664 67.1817 34.2578V19.5651C67.1817 19.5582 67.1831 19.5506 67.1895 19.5399C67.1952 19.5304 67.2061 19.5168 67.2252 19.5024C67.2298 19.5013 67.2378 19.5 67.2497 19.5ZM63.4652 49.7838L63.4812 49.776L63.4966 49.7671L66.7639 47.8743C67.0534 47.7209 67.1592 47.4325 67.1592 47.1872V43.3897C67.1592 43.1901 67.0693 42.865 66.764 42.7027L63.4966 40.8096L63.4812 40.8007L63.4652 40.7929C63.3511 40.7372 63.2259 40.7083 63.099 40.7083C62.9721 40.7083 62.8468 40.7372 62.7328 40.7929L62.7168 40.8007L62.7014 40.8096L59.4341 42.7026C59.1446 42.856 59.0388 43.1444 59.0388 43.3897V47.1872C59.0388 47.3876 59.1291 47.7118 59.4337 47.8741L62.7014 49.7671L62.7168 49.776L62.7328 49.7838C62.8469 49.8395 62.9721 49.8684 63.099 49.8684C63.2259 49.8684 63.3511 49.8395 63.4652 49.7838ZM99.4348 43.2993L99.1828 42.8675L93.4867 46.1903L93.4801 46.1941L93.4736 46.1982C93.4632 46.2047 93.4534 46.207 93.4447 46.207C93.4409 46.207 93.4368 46.2065 93.4325 46.2054C93.4272 46.2041 93.4216 46.2018 93.4158 46.1982L93.3957 46.1856L93.377 46.1763C93.3757 46.175 93.3725 46.1717 93.3686 46.1649C93.3607 46.1513 93.3571 46.1359 93.3571 46.125V43.4126C93.3571 43.0111 93.1323 42.6813 92.8281 42.4912L92.8198 42.486L92.8113 42.4811L89.8127 40.7676C89.6474 40.6662 89.4572 40.6125 89.2631 40.6125C89.069 40.6125 88.8787 40.6663 88.7133 40.7677L85.7246 42.4755C85.3652 42.6629 85.1691 43.0465 85.1691 43.4126V46.871C85.1691 47.272 85.3937 47.6022 85.698 47.7922L85.7057 47.797L85.7136 47.8016L95.3428 53.3395L95.3553 53.3467L95.3659 53.352C95.3672 53.3532 95.3705 53.3566 95.3745 53.3636C95.3825 53.3772 95.386 53.3926 95.386 53.4035C95.386 53.4143 95.3825 53.4297 95.3745 53.4433C95.3705 53.4503 95.3672 53.4537 95.3659 53.4549L95.3585 53.4586L95.3488 53.464L89.585 56.6734L89.5779 56.6773L89.5711 56.6814C89.3953 56.7868 89.1584 56.7951 88.9438 56.6748C88.9435 56.6747 88.9433 56.6745 88.943 56.6744L79.4294 51.2509L79.4268 51.2495C79.22 51.1332 79.0941 50.914 79.0941 50.6908V39.6376C79.0941 39.4141 79.22 39.195 79.4268 39.0787L79.4319 39.0758L89.0132 33.5396C89.0136 33.5394 89.014 33.5391 89.0144 33.5389C89.1144 33.4823 89.2273 33.4525 89.3422 33.4525C89.457 33.4525 89.5698 33.4822 89.6697 33.5387C89.6702 33.539 89.6707 33.5393 89.6712 33.5396L99.1776 39.0491C99.1785 39.0497 99.1795 39.0503 99.1804 39.0508C99.3711 39.1666 99.5 39.3892 99.5 39.6149V42.3046C99.5 42.5473 99.3803 42.7564 99.1898 42.8635L99.4348 43.2993Z" stroke="#42CEB5"/>
<path d="M87.6515 44.1378L89.3084 43.1764L90.9654 44.1378V46.0775L89.3084 47.0389L87.6515 46.0775V44.1378Z" stroke="#42CEB5" stroke-width="0.8"/>
<path d="M27.0759 39.0785L27.0759 39.0786L27.0808 39.0757L36.5944 33.5848C36.5948 33.5846 36.5952 33.5844 36.5955 33.5842C36.6955 33.5275 36.8085 33.4977 36.9234 33.4977C37.0384 33.4977 37.1513 33.5275 37.2513 33.5842C37.2517 33.5844 37.2521 33.5846 37.2524 33.5848L46.762 39.0735C46.9526 39.1894 47.0814 39.412 47.0814 39.6374V50.6455C47.0814 50.8878 46.9616 51.097 46.7711 51.2042L46.771 51.2042L46.7662 51.2069L37.2524 56.6982C37.252 56.6984 37.2517 56.6987 37.2513 56.6989C37.1513 56.7555 37.0383 56.7853 36.9234 56.7853C36.8085 56.7853 36.6956 56.7555 36.5956 56.6989C36.5952 56.6987 36.5948 56.6985 36.5944 56.6982L27.0849 51.2093C26.8943 51.0935 26.7656 50.871 26.7656 50.6455V39.6372C26.7656 39.3947 26.8853 39.1857 27.0759 39.0785Z" stroke="#42CEB5"/>
</svg>
