<svg width="100" height="100" viewBox="0 0 100 100" fill="none" xmlns="http://www.w3.org/2000/svg">
<path d="M67.7613 49.6401C67.7613 63.2589 65.6733 75.5437 62.3308 84.3874C60.6583 88.8129 58.6909 92.325 56.5571 94.7129C54.4227 97.1016 52.2049 98.2802 50 98.2802C47.7952 98.2802 45.5774 97.1016 43.443 94.7129C41.3092 92.325 39.3418 88.8129 37.6692 84.3874C34.3268 75.5437 32.2388 63.2589 32.2388 49.6401C32.2388 36.0213 34.3268 23.7365 37.6692 14.8928C39.3418 10.4673 41.3092 6.95524 43.443 4.56727C45.5774 2.17862 47.7952 1 50 1C52.2049 1 54.4227 2.17862 56.5571 4.56727C58.6909 6.95524 60.6583 10.4673 62.3308 14.8928C65.6733 23.7365 67.7613 36.0213 67.7613 49.6401Z" stroke="#42CEB5" stroke-width="2"/>
<path d="M58.9017 33.3222C70.0351 40.1251 79.0316 48.1718 84.5877 55.6447C87.3673 59.3832 89.2542 62.9358 90.1403 66.082C91.0252 69.2238 90.8922 71.8744 89.766 73.9388C88.6398 76.0032 86.5374 77.4504 83.5241 78.2103C80.5066 78.9712 76.6562 79.018 72.2072 78.3396C63.3142 76.9836 52.2316 72.7611 41.0982 65.9581C29.9648 59.1552 20.9683 51.1085 15.4122 43.6356C12.6326 39.897 10.7457 36.3445 9.85962 33.1983C8.97473 30.0565 9.10777 27.4059 10.2339 25.3415C11.3601 23.2771 13.4625 21.8298 16.4758 21.07C19.4933 20.3091 23.3437 20.2623 27.7927 20.9407C36.6857 22.2967 47.7683 26.5192 58.9017 33.3222Z" stroke="#42CEB5" stroke-width="2"/>
<path d="M41.0982 33.3222C52.2316 26.5192 63.3142 22.2967 72.2072 20.9407C76.6561 20.2623 80.5066 20.3091 83.5241 21.07C86.5374 21.8298 88.6398 23.2771 89.766 25.3415C90.8921 27.4059 91.0252 30.0565 90.1403 33.1983C89.2542 36.3445 87.3673 39.897 84.5877 43.6356C79.0316 51.1085 70.035 59.1552 58.9017 65.9581C47.7683 72.7611 36.6857 76.9836 27.7927 78.3396C23.3437 79.018 19.4933 78.9712 16.4758 78.2103C13.4625 77.4504 11.3601 76.0032 10.2339 73.9388C9.10774 71.8744 8.9747 69.2238 9.85958 66.082C10.7457 62.9358 12.6326 59.3832 15.4122 55.6447C20.9683 48.1718 29.9648 40.1251 41.0982 33.3222Z" stroke="#42CEB5" stroke-width="2"/>
<ellipse cx="49.9999" cy="49.6401" rx="4.69032" ry="4.96401" fill="#42CEB5"/>
</svg>
