<svg width="100" height="100" viewBox="0 0 100 100" fill="none" xmlns="http://www.w3.org/2000/svg">
<mask id="path-1-inside-1_62_13" fill="white">
<path fill-rule="evenodd" clip-rule="evenodd" d="M92.9155 24.8826L49.723 0V0.469453L7 25.3522V75.1174L50.1925 100L92.9155 75.1174V24.8826ZM19.6761 32.3944L19.6761 68.0751L50.1925 85.9155L80.7089 68.0751V32.3944L49.723 14.554L19.6761 32.3944Z"/>
</mask>
<path d="M49.723 0L50.7214 -1.733L47.723 -3.46031V0H49.723ZM92.9155 24.8826H94.9155V23.7267L93.9139 23.1496L92.9155 24.8826ZM49.723 0.469453L50.7296 2.1977L51.723 1.6191V0.469453H49.723ZM7 25.3522L5.99344 23.6239L5 24.2025V25.3522H7ZM7 75.1174H5V76.2733L6.00164 76.8504L7 75.1174ZM50.1925 100L49.1941 101.733L50.198 102.311L51.1991 101.728L50.1925 100ZM92.9155 75.1174L93.9221 76.8456L94.9155 76.267V75.1174H92.9155ZM19.6761 32.3944L18.655 30.6747L17.6761 31.2559V32.3944H19.6761ZM19.6761 68.0751H17.6761V69.2226L18.6667 69.8017L19.6761 68.0751ZM50.1925 85.9155L49.1831 87.6421L50.1925 88.2322L51.2019 87.6421L50.1925 85.9155ZM80.7089 68.0751L81.7183 69.8017L82.7089 69.2226V68.0751H80.7089ZM80.7089 32.3944H82.7089V31.2381L81.7069 30.6611L80.7089 32.3944ZM49.723 14.554L50.7209 12.8207L49.7075 12.2372L48.7019 12.8343L49.723 14.554ZM48.7246 1.733L91.9171 26.6156L93.9139 23.1496L50.7214 -1.733L48.7246 1.733ZM51.723 0.469453V0H47.723V0.469453H51.723ZM8.00656 27.0804L50.7296 2.1977L48.7164 -1.25879L5.99344 23.6239L8.00656 27.0804ZM9 75.1174V25.3522H5V75.1174H9ZM51.1908 98.267L7.99836 73.3844L6.00164 76.8504L49.1941 101.733L51.1908 98.267ZM91.9089 73.3891L49.1859 98.2718L51.1991 101.728L93.9221 76.8456L91.9089 73.3891ZM90.9155 24.8826V75.1174H94.9155V24.8826H90.9155ZM17.6761 32.3944L17.6761 68.0751H21.6761L21.6761 32.3944H17.6761ZM18.6667 69.8017L49.1831 87.6421L51.2019 84.1889L20.6855 66.3485L18.6667 69.8017ZM51.2019 87.6421L81.7183 69.8017L79.6995 66.3485L49.1831 84.1889L51.2019 87.6421ZM82.7089 68.0751V32.3944H78.7089V68.0751H82.7089ZM81.7069 30.6611L50.7209 12.8207L48.7251 16.2872L79.711 34.1276L81.7069 30.6611ZM48.7019 12.8343L18.655 30.6747L20.6971 34.1141L50.7441 16.2737L48.7019 12.8343Z" fill="#42CEB5" mask="url(#path-1-inside-1_62_13)"/>
<path d="M50.2024 35.902L61.399 42.3616V55.3024L50.652 61.7506L39.4553 55.291V42.3502L50.2024 35.902Z" stroke="#42CEB5" stroke-width="2"/>
<mask id="path-4-inside-2_62_13" fill="white">
<path fill-rule="evenodd" clip-rule="evenodd" d="M46.4366 32.8638L34.23 25.8216L22.4929 32.8638L22.493 32.8639V47.4178L34.6995 53.9906V39.9061L46.4366 32.8638Z"/>
</mask>
<path d="M34.23 25.8216L35.2295 24.0892L34.2101 23.5011L33.201 24.1066L34.23 25.8216ZM46.4366 32.8638L47.4656 34.5788L50.3802 32.83L47.436 31.1315L46.4366 32.8638ZM22.4929 32.8638L21.4639 31.1489L18.5567 32.8932L21.4896 34.594L22.4929 32.8638ZM22.493 32.8639H24.493V31.7117L23.4963 31.1337L22.493 32.8639ZM22.493 47.4178H20.493V48.6124L21.5448 49.1788L22.493 47.4178ZM34.6995 53.9906L33.7513 55.7516L36.6995 57.339V53.9906H34.6995ZM34.6995 39.9061L33.6705 38.1911L32.6995 38.7737V39.9061H34.6995ZM33.2306 27.554L45.4371 34.5962L47.436 31.1315L35.2295 24.0892L33.2306 27.554ZM23.5219 34.5788L35.259 27.5366L33.201 24.1066L21.4639 31.1489L23.5219 34.5788ZM23.4963 31.1337L23.4962 31.1337L21.4896 34.594L21.4897 34.594L23.4963 31.1337ZM24.493 47.4178V32.8639H20.493V47.4178H24.493ZM35.6477 52.2297L23.4412 45.6569L21.5448 49.1788L33.7513 55.7516L35.6477 52.2297ZM32.6995 39.9061V53.9906H36.6995V39.9061H32.6995ZM45.4076 31.1489L33.6705 38.1911L35.7285 41.6211L47.4656 34.5788L45.4076 31.1489Z" fill="#42CEB5" mask="url(#path-4-inside-2_62_13)"/>
<mask id="path-6-inside-3_62_13" fill="white">
<path fill-rule="evenodd" clip-rule="evenodd" d="M53.0095 32.8638L65.216 25.8216L76.9531 32.8638L76.9531 32.8639V47.4178L64.7465 53.9906V39.9061L53.0095 32.8638Z"/>
</mask>
<path d="M65.216 25.8216L64.2166 24.0892L65.2359 23.5011L66.245 24.1066L65.216 25.8216ZM53.0095 32.8638L51.9805 34.5788L49.0658 32.83L52.01 31.1315L53.0095 32.8638ZM76.9531 32.8638L77.9821 31.1489L80.8928 32.8953L77.9546 34.595L76.9531 32.8638ZM76.9531 32.8639H74.9531V31.7104L75.9515 31.1327L76.9531 32.8639ZM76.9531 47.4178H78.9531V48.6124L77.9013 49.1788L76.9531 47.4178ZM64.7465 53.9906L65.6947 55.7516L62.7465 57.339V53.9906H64.7465ZM64.7465 39.9061L65.7755 38.1911L66.7465 38.7737V39.9061H64.7465ZM66.2155 27.554L54.0089 34.5962L52.01 31.1315L64.2166 24.0892L66.2155 27.554ZM75.9241 34.5788L64.187 27.5366L66.245 24.1066L77.9821 31.1489L75.9241 34.5788ZM75.9515 31.1327L75.9516 31.1327L77.9546 34.595L77.9546 34.5951L75.9515 31.1327ZM74.9531 47.4178V32.8639H78.9531V47.4178H74.9531ZM63.7983 52.2297L76.0049 45.6569L77.9013 49.1788L65.6947 55.7516L63.7983 52.2297ZM66.7465 39.9061V53.9906H62.7465V39.9061H66.7465ZM54.0385 31.1489L65.7755 38.1911L63.7175 41.621L51.9805 34.5788L54.0385 31.1489Z" fill="#42CEB5" mask="url(#path-6-inside-3_62_13)"/>
<mask id="path-8-inside-4_62_13" fill="white">
<path fill-rule="evenodd" clip-rule="evenodd" d="M38.4509 60.7981L38.4554 74.8904L50.4226 81.5339L50.4226 81.5339L50.4227 81.5339L50.4227 81.5339L50.4227 81.5339L63.0268 74.2569L62.6157 60.3993L50.4182 67.4416L38.4509 60.7981Z"/>
</mask>
<path d="M38.4554 74.8904L36.4554 74.8911L36.4558 76.0679L37.4847 76.6391L38.4554 74.8904ZM38.4509 60.7981L39.4216 59.0495L36.4498 57.3997L36.4509 60.7987L38.4509 60.7981ZM50.4226 81.5339L52.4226 81.5318L52.4214 80.356L51.3934 79.7852L50.4226 81.5339ZM50.4226 81.5339L48.4226 81.536L48.4262 84.9959L51.4226 83.266L50.4226 81.5339ZM50.4227 81.5339L51.3943 79.7858L50.404 79.2353L49.4227 79.8018L50.4227 81.5339ZM50.4227 81.5339L49.4511 83.282L52.4263 84.9357L52.4227 81.5318L50.4227 81.5339ZM50.4227 81.5339L49.4227 79.8018L48.4215 80.3799L48.4227 81.536L50.4227 81.5339ZM63.0268 74.2569L64.0268 75.989L65.0613 75.3917L65.0259 74.1976L63.0268 74.2569ZM62.6157 60.3993L64.6148 60.34L64.5155 56.9931L61.6157 58.6673L62.6157 60.3993ZM50.4182 67.4416L49.4474 69.1902L50.4375 69.7398L51.4182 69.1736L50.4182 67.4416ZM40.4554 74.8898L40.4509 60.7975L36.4509 60.7987L36.4554 74.8911L40.4554 74.8898ZM51.3934 79.7852L39.4262 73.1418L37.4847 76.6391L49.4519 83.2825L51.3934 79.7852ZM52.4226 81.5318L52.4226 81.5318L48.4226 81.5359L48.4226 81.536L52.4226 81.5318ZM49.4227 79.8018L49.4226 79.8019L51.4226 83.266L51.4227 83.2659L49.4227 79.8018ZM51.3944 79.7858L51.3943 79.7858L49.451 83.282L49.4511 83.282L51.3944 79.7858ZM48.4227 81.536L48.4227 81.536L52.4227 81.5318L52.4227 81.5317L48.4227 81.536ZM62.0268 72.5249L49.4227 79.8018L51.4227 83.2659L64.0268 75.989L62.0268 72.5249ZM60.6165 60.4586L61.0277 74.3162L65.0259 74.1976L64.6148 60.34L60.6165 60.4586ZM51.4182 69.1736L63.6157 62.1314L61.6157 58.6673L49.4182 65.7095L51.4182 69.1736ZM37.4802 62.5467L49.4474 69.1902L51.3889 65.6929L39.4216 59.0495L37.4802 62.5467Z" fill="#42CEB5" mask="url(#path-8-inside-4_62_13)"/>
<path d="M33.4598 70.9145L23.4928 65.3815L23.4891 53.5771L33.456 59.1101L33.4598 70.9145Z" stroke="#42CEB5" stroke-width="2"/>
<path d="M66.6816 70.9145L76.6485 65.3815L76.6523 53.5771L66.6853 59.1101L66.6816 70.9145Z" stroke="#42CEB5" stroke-width="2"/>
<path d="M39.5175 23.9437L49.713 18.0616L59.5164 23.9437L49.713 29.8257L39.5175 23.9437Z" stroke="#42CEB5" stroke-width="2"/>
</svg>
