<svg width="100" height="100" viewBox="0 0 100 100" fill="none" xmlns="http://www.w3.org/2000/svg">
<path d="M27.0356 35.8364C27.9398 33.3684 29.3516 30.6959 31.4964 28.3125C34.9641 24.459 40.4094 21.2904 48.9424 21.0192C58.0805 20.7287 63.7286 23.7766 67.8805 27.2792C69.6528 28.7743 71.1485 30.3478 72.5548 31.8273C72.8174 32.1035 73.0768 32.3765 73.3344 32.6451C74.9354 34.3144 76.5104 35.868 78.2472 36.7591C83.0143 39.2048 87.4082 39.4217 91.2698 38.0953C93.6361 37.2825 95.7626 35.9043 97.6325 34.1675C96.9209 35.8767 95.9564 37.7365 94.7115 39.535C92.2552 43.0834 88.7554 46.3263 84.0225 47.7668C71.8556 51.4698 62.6097 46.909 58.0074 43.4572C57.0985 42.7756 56.0184 41.6959 54.7142 40.3805L54.6038 40.2691C53.3495 39.0038 51.9252 37.5671 50.361 36.2157C47.1614 33.4515 43.2099 30.8934 38.6166 30.8934C33.5854 30.8934 29.636 33.3728 27.0356 35.8364Z" stroke="#42CEB5" stroke-width="2"/>
<path d="M2.14453 65.7383C3.04867 63.2704 4.46047 60.5978 6.60525 58.2144C10.073 54.3609 15.5183 51.1923 24.0513 50.9211C33.1894 50.6307 38.8375 53.6785 42.9894 57.1811C44.7617 58.6762 46.2574 60.2497 47.6637 61.7292C47.9263 62.0054 48.1857 62.2784 48.4433 62.547C50.0443 64.2163 51.6193 65.77 53.3561 66.661C58.1232 69.1068 62.5171 69.3236 66.3787 67.9972C68.745 67.1844 70.8715 65.8063 72.7414 64.0694C72.0297 65.7786 71.0653 67.6384 69.8204 69.4369C67.3641 72.9853 63.8643 76.2283 59.1314 77.6687C46.9645 81.3717 37.7185 76.8109 33.1163 73.3592C32.2074 72.6775 31.1273 71.5978 29.8231 70.2824L29.7127 70.171C28.4584 68.9057 27.0341 67.469 25.4699 66.1176C22.2703 63.3534 18.3188 60.7953 13.7255 60.7953C8.69425 60.7953 4.74484 63.2747 2.14453 65.7383Z" stroke="#42CEB5" stroke-width="2"/>
</svg>
